<svg width="339" height="76" viewBox="0 0 339 76" fill="none" xmlns="http://www.w3.org/2000/svg">
<path d="M5.44 26L8.704 9.2H11.128L15.22 19.964L19.312 9.2H21.736L25 26H22.012L19.996 15.608L16.216 25.616H14.212L10.432 15.608L8.428 26H5.44ZM27.4009 14H30.3289V26H27.4009V14ZM28.8889 12.452C28.4569 12.452 28.0929 12.312 27.7969 12.032C27.5009 11.744 27.3529 11.384 27.3529 10.952C27.3529 10.528 27.5009 10.172 27.7969 9.884C28.0929 9.596 28.4529 9.452 28.8769 9.452C29.3009 9.452 29.6569 9.596 29.9449 9.884C30.2409 10.172 30.3889 10.528 30.3889 10.952C30.3889 11.384 30.2449 11.744 29.9569 12.032C29.6689 12.312 29.3129 12.452 28.8889 12.452ZM33.1317 26L33.1197 14H36.0477L36.0597 15.068C36.4677 14.636 36.9557 14.296 37.5237 14.048C38.0917 13.792 38.7037 13.664 39.3597 13.664C39.7997 13.664 40.2397 13.728 40.6797 13.856L39.5277 16.808C39.2237 16.688 38.9197 16.628 38.6157 16.628C38.1437 16.628 37.7117 16.744 37.3197 16.976C36.9357 17.2 36.6277 17.508 36.3957 17.9C36.1717 18.284 36.0597 18.712 36.0597 19.184V26H33.1317ZM42.0848 26L42.0728 14H45.0008L45.0128 15.068C45.4208 14.636 45.9088 14.296 46.4768 14.048C47.0448 13.792 47.6568 13.664 48.3128 13.664C48.7528 13.664 49.1928 13.728 49.6328 13.856L48.4808 16.808C48.1768 16.688 47.8728 16.628 47.5688 16.628C47.0968 16.628 46.6648 16.744 46.2728 16.976C45.8888 17.2 45.5808 17.508 45.3488 17.9C45.1248 18.284 45.0128 18.712 45.0128 19.184V26H42.0848ZM55.6966 26.312C54.5926 26.312 53.5846 26.028 52.6726 25.46C51.7686 24.892 51.0446 24.132 50.5006 23.18C49.9646 22.22 49.6966 21.16 49.6966 20C49.6966 19.12 49.8526 18.3 50.1646 17.54C50.4766 16.772 50.9046 16.1 51.4486 15.524C52.0006 14.94 52.6406 14.484 53.3686 14.156C54.0966 13.828 54.8726 13.664 55.6966 13.664C56.8006 13.664 57.8046 13.948 58.7086 14.516C59.6206 15.084 60.3446 15.848 60.8806 16.808C61.4246 17.768 61.6966 18.832 61.6966 20C61.6966 20.872 61.5406 21.688 61.2286 22.448C60.9166 23.208 60.4846 23.88 59.9326 24.464C59.3886 25.04 58.7526 25.492 58.0246 25.82C57.3046 26.148 56.5286 26.312 55.6966 26.312ZM55.6966 23.384C56.2806 23.384 56.8046 23.228 57.2686 22.916C57.7326 22.604 58.0966 22.192 58.3606 21.68C58.6326 21.168 58.7686 20.608 58.7686 20C58.7686 19.376 58.6286 18.808 58.3486 18.296C58.0766 17.776 57.7046 17.364 57.2326 17.06C56.7686 16.748 56.2566 16.592 55.6966 16.592C55.1206 16.592 54.6006 16.748 54.1366 17.06C53.6726 17.372 53.3046 17.788 53.0326 18.308C52.7606 18.828 52.6246 19.392 52.6246 20C52.6246 20.632 52.7646 21.204 53.0446 21.716C53.3246 22.228 53.6966 22.636 54.1606 22.94C54.6326 23.236 55.1446 23.384 55.6966 23.384ZM63.577 26L63.565 14H66.493L66.505 15.068C66.913 14.636 67.401 14.296 67.969 14.048C68.537 13.792 69.149 13.664 69.805 13.664C70.245 13.664 70.685 13.728 71.125 13.856L69.973 16.808C69.669 16.688 69.365 16.628 69.061 16.628C68.589 16.628 68.157 16.744 67.765 16.976C67.381 17.2 67.073 17.508 66.841 17.9C66.617 18.284 66.505 18.712 66.505 19.184V26H63.577ZM78.565 26V9.2H81.493V23.072H88.489V26H78.565ZM99.1911 14H102.119V26H99.1911L99.0591 24.512C98.7311 25.048 98.2951 25.484 97.7511 25.82C97.2151 26.148 96.5791 26.312 95.8431 26.312C94.9551 26.312 94.1231 26.144 93.3471 25.808C92.5711 25.472 91.8871 25.008 91.2951 24.416C90.7111 23.824 90.2511 23.14 89.9151 22.364C89.5871 21.588 89.4231 20.756 89.4231 19.868C89.4231 19.012 89.5791 18.208 89.8911 17.456C90.2111 16.704 90.6551 16.044 91.2231 15.476C91.7911 14.908 92.4471 14.464 93.1911 14.144C93.9351 13.824 94.7351 13.664 95.5911 13.664C96.3831 13.664 97.0911 13.84 97.7151 14.192C98.3471 14.544 98.8831 14.992 99.3231 15.536L99.1911 14ZM95.7711 23.492C96.3951 23.492 96.9471 23.336 97.4271 23.024C97.9071 22.712 98.2831 22.292 98.5551 21.764C98.8271 21.228 98.9631 20.64 98.9631 20C98.9631 19.352 98.8271 18.764 98.5551 18.236C98.2831 17.7 97.9031 17.276 97.4151 16.964C96.9351 16.652 96.3871 16.496 95.7711 16.496C95.1551 16.496 94.5911 16.656 94.0791 16.976C93.5751 17.288 93.1711 17.708 92.8671 18.236C92.5711 18.764 92.4231 19.352 92.4231 20C92.4231 20.648 92.5751 21.236 92.8791 21.764C93.1831 22.292 93.5871 22.712 94.0911 23.024C94.6031 23.336 95.1631 23.492 95.7711 23.492ZM115.297 26H111.925L109.189 21.284L107.509 23.288V26H104.581V8H107.509V18.74L111.481 14H115.309L111.193 18.908L115.297 26ZM121.697 26.312C120.593 26.312 119.585 26.028 118.673 25.46C117.769 24.892 117.045 24.128 116.501 23.168C115.965 22.208 115.697 21.148 115.697 19.988C115.697 19.116 115.853 18.3 116.165 17.54C116.477 16.772 116.905 16.1 117.449 15.524C118.001 14.94 118.641 14.484 119.369 14.156C120.097 13.828 120.873 13.664 121.697 13.664C122.633 13.664 123.489 13.864 124.265 14.264C125.049 14.656 125.713 15.196 126.257 15.884C126.801 16.572 127.197 17.356 127.445 18.236C127.693 19.116 127.749 20.036 127.613 20.996H118.841C118.953 21.444 119.137 21.848 119.393 22.208C119.649 22.56 119.973 22.844 120.365 23.06C120.757 23.268 121.201 23.376 121.697 23.384C122.209 23.392 122.673 23.272 123.089 23.024C123.513 22.768 123.865 22.424 124.145 21.992L127.133 22.688C126.645 23.752 125.917 24.624 124.949 25.304C123.981 25.976 122.897 26.312 121.697 26.312ZM118.745 18.8H124.649C124.561 18.32 124.373 17.888 124.085 17.504C123.805 17.112 123.457 16.8 123.041 16.568C122.625 16.336 122.177 16.22 121.697 16.22C121.217 16.22 120.773 16.336 120.365 16.568C119.957 16.792 119.609 17.1 119.321 17.492C119.041 17.876 118.849 18.312 118.745 18.8Z" fill="#262626"/>
<g opacity="0.7">
<path fill-rule="evenodd" clip-rule="evenodd" d="M7.5 58.3178C7.5 53.7179 11.3439 50 15.9934 50C20.6561 50 24.5 53.7179 24.5 58.3178C24.5 60.6357 23.657 62.7876 22.2695 64.6116C20.7388 66.6235 18.8522 68.3765 16.7285 69.7524C16.2425 70.0704 15.8039 70.0944 15.2704 69.7524C13.1347 68.3765 11.2481 66.6235 9.7305 64.6116C8.34198 62.7876 7.5 60.6357 7.5 58.3178ZM13.1942 58.5768C13.1942 60.1177 14.4517 61.3297 15.9934 61.3297C17.5362 61.3297 18.8058 60.1177 18.8058 58.5768C18.8058 57.0478 17.5362 55.7768 15.9934 55.7768C14.4517 55.7768 13.1942 57.0478 13.1942 58.5768Z" fill="#25A59E"/>
<path d="M38.808 66.234C38.364 66.234 37.929 66.159 37.503 66.009C37.083 65.859 36.702 65.637 36.36 65.343L37.557 63.903C37.707 64.029 37.887 64.137 38.097 64.227C38.307 64.317 38.544 64.362 38.808 64.362C39.168 64.362 39.495 64.269 39.789 64.083C40.089 63.891 40.329 63.642 40.509 63.336C40.689 63.024 40.779 62.691 40.779 62.337V53.4H42.651V62.337C42.651 63.039 42.477 63.687 42.129 64.281C41.781 64.869 41.316 65.343 40.734 65.703C40.158 66.057 39.516 66.234 38.808 66.234ZM51.8164 57H53.6884V66H51.8074L51.7354 64.695C51.4714 65.157 51.1144 65.529 50.6644 65.811C50.2144 66.093 49.6834 66.234 49.0714 66.234C48.4114 66.234 47.7904 66.111 47.2084 65.865C46.6264 65.613 46.1134 65.265 45.6694 64.821C45.2314 64.377 44.8894 63.867 44.6434 63.291C44.3974 62.709 44.2744 62.085 44.2744 61.419C44.2744 60.777 44.3944 60.174 44.6344 59.61C44.8744 59.04 45.2074 58.542 45.6334 58.116C46.0594 57.69 46.5514 57.357 47.1094 57.117C47.6734 56.871 48.2764 56.748 48.9184 56.748C49.5724 56.748 50.1484 56.898 50.6464 57.198C51.1504 57.492 51.5674 57.87 51.8974 58.332L51.8164 57ZM49.0264 64.425C49.5544 64.425 50.0164 64.296 50.4124 64.038C50.8084 63.774 51.1144 63.42 51.3304 62.976C51.5524 62.532 51.6634 62.04 51.6634 61.5C51.6634 60.954 51.5524 60.459 51.3304 60.015C51.1084 59.571 50.7994 59.22 50.4034 58.962C50.0134 58.698 49.5544 58.566 49.0264 58.566C48.5044 58.566 48.0274 58.698 47.5954 58.962C47.1634 59.226 46.8214 59.58 46.5694 60.024C46.3174 60.468 46.1914 60.96 46.1914 61.5C46.1914 62.046 46.3204 62.541 46.5784 62.985C46.8424 63.423 47.1874 63.774 47.6134 64.038C48.0454 64.296 48.5164 64.425 49.0264 64.425ZM59.4883 66H57.6253L54.6103 57H56.4463L58.5703 63.318L60.6763 57H62.5663L64.6723 63.318L66.7873 57H68.6233L65.6173 66H63.7363L61.6123 59.637L59.4883 66ZM76.6718 57H78.5438V66H76.6628L76.5908 64.695C76.3268 65.157 75.9698 65.529 75.5198 65.811C75.0698 66.093 74.5388 66.234 73.9268 66.234C73.2668 66.234 72.6458 66.111 72.0638 65.865C71.4818 65.613 70.9688 65.265 70.5248 64.821C70.0868 64.377 69.7448 63.867 69.4988 63.291C69.2528 62.709 69.1298 62.085 69.1298 61.419C69.1298 60.777 69.2498 60.174 69.4898 59.61C69.7298 59.04 70.0628 58.542 70.4888 58.116C70.9148 57.69 71.4068 57.357 71.9648 57.117C72.5288 56.871 73.1318 56.748 73.7738 56.748C74.4278 56.748 75.0038 56.898 75.5018 57.198C76.0058 57.492 76.4228 57.87 76.7528 58.332L76.6718 57ZM73.8818 64.425C74.4098 64.425 74.8718 64.296 75.2678 64.038C75.6638 63.774 75.9698 63.42 76.1858 62.976C76.4078 62.532 76.5188 62.04 76.5188 61.5C76.5188 60.954 76.4078 60.459 76.1858 60.015C75.9638 59.571 75.6548 59.22 75.2588 58.962C74.8688 58.698 74.4098 58.566 73.8818 58.566C73.3598 58.566 72.8828 58.698 72.4508 58.962C72.0188 59.226 71.6768 59.58 71.4248 60.024C71.1728 60.468 71.0468 60.96 71.0468 61.5C71.0468 62.046 71.1758 62.541 71.4338 62.985C71.6978 63.423 72.0428 63.774 72.4688 64.038C72.9008 64.296 73.3718 64.425 73.8818 64.425ZM94.195 53.4V55.272H90.181V66H88.309V55.272H84.304V53.4H94.195ZM98.5908 66.234C97.7628 66.234 97.0068 66.021 96.3228 65.595C95.6448 65.169 95.1018 64.599 94.6938 63.885C94.2918 63.165 94.0908 62.37 94.0908 61.5C94.0908 60.84 94.2078 60.225 94.4418 59.655C94.6758 59.079 94.9968 58.575 95.4048 58.143C95.8188 57.705 96.2988 57.363 96.8448 57.117C97.3908 56.871 97.9728 56.748 98.5908 56.748C99.2808 56.748 99.9138 56.892 100.49 57.18C101.066 57.462 101.558 57.855 101.966 58.359C102.374 58.857 102.674 59.433 102.866 60.087C103.058 60.735 103.115 61.425 103.037 62.157H96.0978C96.1758 62.571 96.3258 62.946 96.5478 63.282C96.7758 63.612 97.0638 63.873 97.4118 64.065C97.7658 64.257 98.1588 64.356 98.5908 64.362C99.0468 64.362 99.4608 64.248 99.8328 64.02C100.211 63.792 100.52 63.477 100.76 63.075L102.659 63.516C102.299 64.314 101.756 64.968 101.03 65.478C100.304 65.982 99.4908 66.234 98.5908 66.234ZM96.0348 60.726H101.147C101.087 60.294 100.934 59.904 100.688 59.556C100.448 59.202 100.145 58.923 99.7788 58.719C99.4188 58.509 99.0228 58.404 98.5908 58.404C98.1648 58.404 97.7688 58.506 97.4028 58.71C97.0428 58.914 96.7428 59.193 96.5028 59.547C96.2688 59.895 96.1128 60.288 96.0348 60.726ZM112.627 60.357V66H110.755V60.816C110.755 60.414 110.656 60.048 110.458 59.718C110.266 59.388 110.005 59.127 109.675 58.935C109.351 58.737 108.985 58.638 108.577 58.638C108.181 58.638 107.818 58.737 107.488 58.935C107.158 59.127 106.894 59.388 106.696 59.718C106.498 60.048 106.399 60.414 106.399 60.816V66H104.527V57H106.399V57.954C106.711 57.582 107.095 57.288 107.551 57.072C108.007 56.856 108.499 56.748 109.027 56.748C109.693 56.748 110.299 56.91 110.845 57.234C111.391 57.558 111.823 57.993 112.141 58.539C112.465 59.085 112.627 59.691 112.627 60.357ZM121.097 57H122.969V66.234C122.969 66.852 122.837 67.422 122.573 67.944C122.315 68.466 121.964 68.916 121.52 69.294C121.076 69.678 120.566 69.975 119.99 70.185C119.42 70.395 118.823 70.5 118.199 70.5C117.569 70.5 116.963 70.365 116.381 70.095C115.799 69.831 115.286 69.471 114.842 69.015C114.404 68.559 114.077 68.043 113.861 67.467L115.58 66.693C115.7 67.065 115.892 67.395 116.156 67.683C116.426 67.971 116.738 68.199 117.092 68.367C117.452 68.535 117.821 68.619 118.199 68.619C118.571 68.619 118.928 68.559 119.27 68.439C119.618 68.325 119.927 68.163 120.197 67.953C120.473 67.743 120.692 67.491 120.854 67.197C121.016 66.903 121.097 66.582 121.097 66.234V64.713C120.803 65.169 120.425 65.538 119.963 65.82C119.501 66.096 118.964 66.234 118.352 66.234C117.716 66.234 117.116 66.111 116.552 65.865C115.988 65.619 115.493 65.28 115.067 64.848C114.641 64.41 114.308 63.906 114.068 63.336C113.828 62.766 113.708 62.154 113.708 61.5C113.708 60.846 113.828 60.234 114.068 59.664C114.308 59.088 114.641 58.584 115.067 58.152C115.493 57.714 115.988 57.372 116.552 57.126C117.116 56.88 117.716 56.757 118.352 56.757C118.964 56.757 119.501 56.898 119.963 57.18C120.425 57.456 120.803 57.825 121.097 58.287V57ZM118.37 64.425C118.892 64.425 119.348 64.293 119.738 64.029C120.128 63.759 120.431 63.402 120.647 62.958C120.863 62.514 120.971 62.028 120.971 61.5C120.971 60.96 120.86 60.471 120.638 60.033C120.422 59.589 120.119 59.235 119.729 58.971C119.339 58.701 118.886 58.566 118.37 58.566C117.866 58.566 117.404 58.698 116.984 58.962C116.57 59.226 116.24 59.58 115.994 60.024C115.748 60.468 115.625 60.96 115.625 61.5C115.625 62.04 115.748 62.532 115.994 62.976C116.246 63.42 116.579 63.774 116.993 64.038C117.413 64.296 117.872 64.425 118.37 64.425ZM131.973 57H133.845V66H131.964L131.892 64.695C131.628 65.157 131.271 65.529 130.821 65.811C130.371 66.093 129.84 66.234 129.228 66.234C128.568 66.234 127.947 66.111 127.365 65.865C126.783 65.613 126.27 65.265 125.826 64.821C125.388 64.377 125.046 63.867 124.8 63.291C124.554 62.709 124.431 62.085 124.431 61.419C124.431 60.777 124.551 60.174 124.791 59.61C125.031 59.04 125.364 58.542 125.79 58.116C126.216 57.69 126.708 57.357 127.266 57.117C127.83 56.871 128.433 56.748 129.075 56.748C129.729 56.748 130.305 56.898 130.803 57.198C131.307 57.492 131.724 57.87 132.054 58.332L131.973 57ZM129.183 64.425C129.711 64.425 130.173 64.296 130.569 64.038C130.965 63.774 131.271 63.42 131.487 62.976C131.709 62.532 131.82 62.04 131.82 61.5C131.82 60.954 131.709 60.459 131.487 60.015C131.265 59.571 130.956 59.22 130.56 58.962C130.17 58.698 129.711 58.566 129.183 58.566C128.661 58.566 128.184 58.698 127.752 58.962C127.32 59.226 126.978 59.58 126.726 60.024C126.474 60.468 126.348 60.96 126.348 61.5C126.348 62.046 126.477 62.541 126.735 62.985C126.999 63.423 127.344 63.774 127.77 64.038C128.202 64.296 128.673 64.425 129.183 64.425ZM143.811 60.357V66H141.939V60.816C141.939 60.414 141.84 60.048 141.642 59.718C141.45 59.388 141.189 59.127 140.859 58.935C140.535 58.737 140.169 58.638 139.761 58.638C139.365 58.638 139.002 58.737 138.672 58.935C138.342 59.127 138.078 59.388 137.88 59.718C137.682 60.048 137.583 60.414 137.583 60.816V66H135.711V52.5H137.583V57.954C137.895 57.582 138.279 57.288 138.735 57.072C139.191 56.856 139.683 56.748 140.211 56.748C140.877 56.748 141.483 56.91 142.029 57.234C142.575 57.558 143.007 57.993 143.325 58.539C143.649 59.085 143.811 59.691 143.811 60.357ZM145.247 67.008L145.805 63.966H147.677L146.489 67.008H145.247ZM154.438 66V53.4H156.31V66H154.438ZM166.838 60.357V66H164.966V60.816C164.966 60.414 164.867 60.048 164.669 59.718C164.477 59.388 164.216 59.127 163.886 58.935C163.562 58.737 163.196 58.638 162.788 58.638C162.392 58.638 162.029 58.737 161.699 58.935C161.369 59.127 161.105 59.388 160.907 59.718C160.709 60.048 160.61 60.414 160.61 60.816V66H158.738V57H160.61V57.954C160.922 57.582 161.306 57.288 161.762 57.072C162.218 56.856 162.71 56.748 163.238 56.748C163.904 56.748 164.51 56.91 165.056 57.234C165.602 57.558 166.034 57.993 166.352 58.539C166.676 59.085 166.838 59.691 166.838 60.357ZM175.47 52.5H177.342V66H175.47V64.677C175.176 65.145 174.792 65.523 174.318 65.811C173.844 66.093 173.289 66.234 172.653 66.234C171.999 66.234 171.387 66.111 170.817 65.865C170.247 65.619 169.743 65.28 169.305 64.848C168.873 64.41 168.534 63.906 168.288 63.336C168.042 62.766 167.919 62.154 167.919 61.5C167.919 60.846 168.042 60.234 168.288 59.664C168.534 59.088 168.873 58.584 169.305 58.152C169.743 57.714 170.247 57.372 170.817 57.126C171.387 56.88 171.999 56.757 172.653 56.757C173.289 56.757 173.844 56.901 174.318 57.189C174.792 57.471 175.176 57.843 175.47 58.305V52.5ZM172.671 64.425C173.199 64.425 173.661 64.296 174.057 64.038C174.453 63.774 174.759 63.42 174.975 62.976C175.197 62.532 175.308 62.04 175.308 61.5C175.308 60.954 175.197 60.459 174.975 60.015C174.753 59.571 174.444 59.22 174.048 58.962C173.658 58.698 173.199 58.566 172.671 58.566C172.149 58.566 171.672 58.698 171.24 58.962C170.814 59.226 170.472 59.58 170.214 60.024C169.962 60.468 169.836 60.96 169.836 61.5C169.836 62.046 169.965 62.541 170.223 62.985C170.487 63.423 170.832 63.774 171.258 64.038C171.69 64.296 172.161 64.425 172.671 64.425ZM183.335 66.234C182.507 66.234 181.751 66.021 181.067 65.595C180.389 65.169 179.846 64.599 179.438 63.885C179.036 63.165 178.835 62.37 178.835 61.5C178.835 60.84 178.952 60.225 179.186 59.655C179.42 59.079 179.741 58.575 180.149 58.143C180.563 57.705 181.043 57.363 181.589 57.117C182.135 56.871 182.717 56.748 183.335 56.748C184.163 56.748 184.916 56.961 185.594 57.387C186.278 57.813 186.821 58.386 187.223 59.106C187.631 59.826 187.835 60.624 187.835 61.5C187.835 62.154 187.718 62.766 187.484 63.336C187.25 63.906 186.926 64.41 186.512 64.848C186.104 65.28 185.627 65.619 185.081 65.865C184.541 66.111 183.959 66.234 183.335 66.234ZM183.335 64.362C183.833 64.362 184.28 64.23 184.676 63.966C185.072 63.702 185.384 63.354 185.612 62.922C185.846 62.484 185.963 62.01 185.963 61.5C185.963 60.978 185.843 60.498 185.603 60.06C185.369 59.622 185.054 59.274 184.658 59.016C184.262 58.752 183.821 58.62 183.335 58.62C182.843 58.62 182.396 58.752 181.994 59.016C181.598 59.28 181.283 59.631 181.049 60.069C180.821 60.507 180.707 60.984 180.707 61.5C180.707 62.034 180.827 62.517 181.067 62.949C181.307 63.381 181.625 63.726 182.021 63.984C182.423 64.236 182.861 64.362 183.335 64.362ZM197.389 60.357V66H195.517V60.816C195.517 60.414 195.418 60.048 195.22 59.718C195.028 59.388 194.767 59.127 194.437 58.935C194.113 58.737 193.747 58.638 193.339 58.638C192.943 58.638 192.58 58.737 192.25 58.935C191.92 59.127 191.656 59.388 191.458 59.718C191.26 60.048 191.161 60.414 191.161 60.816V66H189.289V57H191.161V57.954C191.473 57.582 191.857 57.288 192.313 57.072C192.769 56.856 193.261 56.748 193.789 56.748C194.455 56.748 195.061 56.91 195.607 57.234C196.153 57.558 196.585 57.993 196.903 58.539C197.227 59.085 197.389 59.691 197.389 60.357ZM202.97 66.234C202.142 66.234 201.386 66.021 200.702 65.595C200.024 65.169 199.481 64.599 199.073 63.885C198.671 63.165 198.47 62.37 198.47 61.5C198.47 60.84 198.587 60.225 198.821 59.655C199.055 59.079 199.376 58.575 199.784 58.143C200.198 57.705 200.678 57.363 201.224 57.117C201.77 56.871 202.352 56.748 202.97 56.748C203.66 56.748 204.293 56.892 204.869 57.18C205.445 57.462 205.937 57.855 206.345 58.359C206.753 58.857 207.053 59.433 207.245 60.087C207.437 60.735 207.494 61.425 207.416 62.157H200.477C200.555 62.571 200.705 62.946 200.927 63.282C201.155 63.612 201.443 63.873 201.791 64.065C202.145 64.257 202.538 64.356 202.97 64.362C203.426 64.362 203.84 64.248 204.212 64.02C204.59 63.792 204.899 63.477 205.139 63.075L207.038 63.516C206.678 64.314 206.135 64.968 205.409 65.478C204.683 65.982 203.87 66.234 202.97 66.234ZM200.414 60.726H205.526C205.466 60.294 205.313 59.904 205.067 59.556C204.827 59.202 204.524 58.923 204.158 58.719C203.798 58.509 203.402 58.404 202.97 58.404C202.544 58.404 202.148 58.506 201.782 58.71C201.422 58.914 201.122 59.193 200.882 59.547C200.648 59.895 200.492 60.288 200.414 60.726ZM211.641 66.171C211.167 66.141 210.705 66.045 210.255 65.883C209.805 65.721 209.409 65.502 209.067 65.226C208.731 64.944 208.479 64.614 208.311 64.236L209.904 63.552C209.982 63.714 210.117 63.873 210.309 64.029C210.507 64.185 210.738 64.314 211.002 64.416C211.266 64.512 211.542 64.56 211.83 64.56C212.112 64.56 212.373 64.521 212.613 64.443C212.859 64.359 213.06 64.233 213.216 64.065C213.372 63.897 213.45 63.696 213.45 63.462C213.45 63.198 213.36 62.994 213.18 62.85C213.006 62.7 212.787 62.586 212.523 62.508C212.259 62.43 211.995 62.355 211.731 62.283C211.143 62.151 210.603 61.971 210.111 61.743C209.625 61.509 209.238 61.212 208.95 60.852C208.662 60.486 208.518 60.039 208.518 59.511C208.518 58.935 208.674 58.437 208.986 58.017C209.298 57.591 209.706 57.264 210.21 57.036C210.72 56.808 211.263 56.694 211.839 56.694C212.559 56.694 213.219 56.847 213.819 57.153C214.419 57.459 214.878 57.879 215.196 58.413L213.711 59.295C213.621 59.115 213.486 58.953 213.306 58.809C213.126 58.665 212.922 58.551 212.694 58.467C212.466 58.377 212.229 58.326 211.983 58.314C211.677 58.302 211.392 58.338 211.128 58.422C210.87 58.5 210.663 58.626 210.507 58.8C210.351 58.974 210.273 59.196 210.273 59.466C210.273 59.73 210.366 59.928 210.552 60.06C210.738 60.186 210.972 60.288 211.254 60.366C211.542 60.444 211.836 60.531 212.136 60.627C212.67 60.795 213.171 61.002 213.639 61.248C214.107 61.488 214.485 61.785 214.773 62.139C215.061 62.493 215.199 62.925 215.187 63.435C215.187 63.999 215.016 64.494 214.674 64.92C214.338 65.346 213.9 65.67 213.36 65.892C212.82 66.114 212.247 66.207 211.641 66.171ZM216.57 57H218.442V66H216.57V57ZM217.524 55.695C217.236 55.695 216.996 55.602 216.804 55.416C216.612 55.23 216.516 54.996 216.516 54.714C216.516 54.438 216.612 54.207 216.804 54.021C216.996 53.829 217.233 53.733 217.515 53.733C217.791 53.733 218.025 53.829 218.217 54.021C218.409 54.207 218.505 54.438 218.505 54.714C218.505 54.996 218.409 55.23 218.217 55.416C218.031 55.602 217.8 55.695 217.524 55.695ZM227.439 57H229.311V66H227.43L227.358 64.695C227.094 65.157 226.737 65.529 226.287 65.811C225.837 66.093 225.306 66.234 224.694 66.234C224.034 66.234 223.413 66.111 222.831 65.865C222.249 65.613 221.736 65.265 221.292 64.821C220.854 64.377 220.512 63.867 220.266 63.291C220.02 62.709 219.897 62.085 219.897 61.419C219.897 60.777 220.017 60.174 220.257 59.61C220.497 59.04 220.83 58.542 221.256 58.116C221.682 57.69 222.174 57.357 222.732 57.117C223.296 56.871 223.899 56.748 224.541 56.748C225.195 56.748 225.771 56.898 226.269 57.198C226.773 57.492 227.19 57.87 227.52 58.332L227.439 57ZM224.649 64.425C225.177 64.425 225.639 64.296 226.035 64.038C226.431 63.774 226.737 63.42 226.953 62.976C227.175 62.532 227.286 62.04 227.286 61.5C227.286 60.954 227.175 60.459 226.953 60.015C226.731 59.571 226.422 59.22 226.026 58.962C225.636 58.698 225.177 58.566 224.649 58.566C224.127 58.566 223.65 58.698 223.218 58.962C222.786 59.226 222.444 59.58 222.192 60.024C221.94 60.468 221.814 60.96 221.814 61.5C221.814 62.046 221.943 62.541 222.201 62.985C222.465 63.423 222.81 63.774 223.236 64.038C223.668 64.296 224.139 64.425 224.649 64.425Z" fill="#262626"/>
</g>
</svg>
