<svg width="340" height="76" viewBox="0 0 340 76" fill="none" xmlns="http://www.w3.org/2000/svg">
<path d="M12.1545 26.312C11.2265 26.312 10.3345 26.168 9.4785 25.88C8.6305 25.584 7.8865 25.164 7.2465 24.62C6.6065 24.068 6.1465 23.408 5.8665 22.64L8.6145 21.632C8.7265 21.952 8.9545 22.244 9.2985 22.508C9.6425 22.772 10.0625 22.984 10.5585 23.144C11.0545 23.304 11.5865 23.384 12.1545 23.384C12.7385 23.384 13.2825 23.296 13.7865 23.12C14.2985 22.936 14.7105 22.684 15.0225 22.364C15.3345 22.036 15.4905 21.656 15.4905 21.224C15.4905 20.784 15.3265 20.424 14.9985 20.144C14.6705 19.856 14.2505 19.628 13.7385 19.46C13.2265 19.292 12.6985 19.164 12.1545 19.076C10.9625 18.892 9.8945 18.608 8.9505 18.224C8.0065 17.84 7.2585 17.308 6.7065 16.628C6.1625 15.948 5.8905 15.068 5.8905 13.988C5.8905 12.972 6.1825 12.084 6.7665 11.324C7.3505 10.564 8.1185 9.972 9.0705 9.548C10.0225 9.124 11.0505 8.912 12.1545 8.912C13.0745 8.912 13.9625 9.056 14.8185 9.344C15.6745 9.632 16.4225 10.052 17.0625 10.604C17.7105 11.156 18.1745 11.82 18.4545 12.596L15.6945 13.592C15.5825 13.272 15.3545 12.98 15.0105 12.716C14.6665 12.452 14.2465 12.244 13.7505 12.092C13.2545 11.932 12.7225 11.852 12.1545 11.852C11.5865 11.844 11.0465 11.936 10.5345 12.128C10.0305 12.312 9.6185 12.564 9.2985 12.884C8.9785 13.204 8.8185 13.572 8.8185 13.988C8.8185 14.524 8.9665 14.928 9.2625 15.2C9.5665 15.472 9.9705 15.672 10.4745 15.8C10.9785 15.92 11.5385 16.032 12.1545 16.136C13.2745 16.312 14.3105 16.608 15.2625 17.024C16.2145 17.44 16.9785 17.996 17.5545 18.692C18.1305 19.38 18.4185 20.224 18.4185 21.224C18.4185 22.24 18.1305 23.132 17.5545 23.9C16.9785 24.66 16.2145 25.252 15.2625 25.676C14.3105 26.1 13.2745 26.312 12.1545 26.312ZM20.3218 21.56V14H23.2498V20.792C23.2498 21.264 23.3658 21.696 23.5978 22.088C23.8298 22.472 24.1378 22.78 24.5218 23.012C24.9138 23.236 25.3418 23.348 25.8058 23.348C26.2858 23.348 26.7178 23.236 27.1018 23.012C27.4858 22.78 27.7938 22.472 28.0258 22.088C28.2578 21.696 28.3738 21.264 28.3738 20.792V14H31.3018L31.3138 26H28.3858L28.3738 24.908C27.9578 25.34 27.4658 25.684 26.8978 25.94C26.3298 26.188 25.7218 26.312 25.0738 26.312C24.2018 26.312 23.4058 26.1 22.6858 25.676C21.9658 25.244 21.3898 24.672 20.9578 23.96C20.5338 23.24 20.3218 22.44 20.3218 21.56ZM44.7079 18.416V26H41.7799V19.184C41.7799 18.712 41.6639 18.284 41.4319 17.9C41.1999 17.508 40.8879 17.2 40.4959 16.976C40.1119 16.744 39.6839 16.628 39.2119 16.628C38.7399 16.628 38.3079 16.744 37.9159 16.976C37.5319 17.2 37.2239 17.508 36.9919 17.9C36.7679 18.284 36.6559 18.712 36.6559 19.184V26H33.7279L33.7159 14H36.6439L36.6559 15.068C37.0639 14.636 37.5519 14.296 38.1199 14.048C38.6879 13.792 39.2999 13.664 39.9559 13.664C40.8279 13.664 41.6239 13.88 42.3439 14.312C43.0639 14.736 43.6359 15.308 44.0599 16.028C44.4919 16.74 44.7079 17.536 44.7079 18.416ZM53.5307 16.928H51.2027V26H48.2747V16.928H46.4987V14H48.2747V10.232H51.2027V14H53.5307V16.928ZM60.699 26.312C59.595 26.312 58.587 26.028 57.675 25.46C56.771 24.892 56.047 24.128 55.503 23.168C54.967 22.208 54.699 21.148 54.699 19.988C54.699 19.116 54.855 18.3 55.167 17.54C55.479 16.772 55.907 16.1 56.451 15.524C57.003 14.94 57.643 14.484 58.371 14.156C59.099 13.828 59.875 13.664 60.699 13.664C61.635 13.664 62.491 13.864 63.267 14.264C64.051 14.656 64.715 15.196 65.259 15.884C65.803 16.572 66.199 17.356 66.447 18.236C66.695 19.116 66.751 20.036 66.615 20.996H57.843C57.955 21.444 58.139 21.848 58.395 22.208C58.651 22.56 58.975 22.844 59.367 23.06C59.759 23.268 60.203 23.376 60.699 23.384C61.211 23.392 61.675 23.272 62.091 23.024C62.515 22.768 62.867 22.424 63.147 21.992L66.135 22.688C65.647 23.752 64.919 24.624 63.951 25.304C62.983 25.976 61.899 26.312 60.699 26.312ZM57.747 18.8H63.651C63.563 18.32 63.375 17.888 63.087 17.504C62.807 17.112 62.459 16.8 62.043 16.568C61.627 16.336 61.179 16.22 60.699 16.22C60.219 16.22 59.775 16.336 59.367 16.568C58.959 16.792 58.611 17.1 58.323 17.492C58.043 17.876 57.851 18.312 57.747 18.8ZM68.5794 26L68.5674 14H71.4954L71.5074 15.068C71.9154 14.636 72.4034 14.296 72.9714 14.048C73.5394 13.792 74.1514 13.664 74.8074 13.664C75.2474 13.664 75.6874 13.728 76.1274 13.856L74.9754 16.808C74.6714 16.688 74.3674 16.628 74.0634 16.628C73.5914 16.628 73.1594 16.744 72.7674 16.976C72.3834 17.2 72.0754 17.508 71.8434 17.9C71.6194 18.284 71.5074 18.712 71.5074 19.184V26H68.5794ZM83.5674 26V9.2H86.4954V23.072H93.4914V26H83.5674ZM104.194 14H107.122V26H104.194L104.062 24.512C103.734 25.048 103.298 25.484 102.754 25.82C102.218 26.148 101.582 26.312 100.846 26.312C99.9576 26.312 99.1256 26.144 98.3496 25.808C97.5736 25.472 96.8896 25.008 96.2976 24.416C95.7136 23.824 95.2536 23.14 94.9176 22.364C94.5896 21.588 94.4256 20.756 94.4256 19.868C94.4256 19.012 94.5816 18.208 94.8936 17.456C95.2136 16.704 95.6576 16.044 96.2256 15.476C96.7936 14.908 97.4496 14.464 98.1936 14.144C98.9376 13.824 99.7376 13.664 100.594 13.664C101.386 13.664 102.094 13.84 102.718 14.192C103.35 14.544 103.886 14.992 104.326 15.536L104.194 14ZM100.774 23.492C101.398 23.492 101.95 23.336 102.43 23.024C102.91 22.712 103.286 22.292 103.558 21.764C103.83 21.228 103.966 20.64 103.966 20C103.966 19.352 103.83 18.764 103.558 18.236C103.286 17.7 102.906 17.276 102.418 16.964C101.938 16.652 101.39 16.496 100.774 16.496C100.158 16.496 99.5936 16.656 99.0816 16.976C98.5776 17.288 98.1736 17.708 97.8696 18.236C97.5736 18.764 97.4256 19.352 97.4256 20C97.4256 20.648 97.5776 21.236 97.8816 21.764C98.1856 22.292 98.5896 22.712 99.0936 23.024C99.6056 23.336 100.166 23.492 100.774 23.492ZM120.299 26H116.927L114.191 21.284L112.511 23.288V26H109.583V8H112.511V18.74L116.483 14H120.311L116.195 18.908L120.299 26ZM126.699 26.312C125.595 26.312 124.587 26.028 123.675 25.46C122.771 24.892 122.047 24.128 121.503 23.168C120.967 22.208 120.699 21.148 120.699 19.988C120.699 19.116 120.855 18.3 121.167 17.54C121.479 16.772 121.907 16.1 122.451 15.524C123.003 14.94 123.643 14.484 124.371 14.156C125.099 13.828 125.875 13.664 126.699 13.664C127.635 13.664 128.491 13.864 129.267 14.264C130.051 14.656 130.715 15.196 131.259 15.884C131.803 16.572 132.199 17.356 132.447 18.236C132.695 19.116 132.751 20.036 132.615 20.996H123.843C123.955 21.444 124.139 21.848 124.395 22.208C124.651 22.56 124.975 22.844 125.367 23.06C125.759 23.268 126.203 23.376 126.699 23.384C127.211 23.392 127.675 23.272 128.091 23.024C128.515 22.768 128.867 22.424 129.147 21.992L132.135 22.688C131.647 23.752 130.919 24.624 129.951 25.304C128.983 25.976 127.899 26.312 126.699 26.312ZM123.747 18.8H129.651C129.563 18.32 129.375 17.888 129.087 17.504C128.807 17.112 128.459 16.8 128.043 16.568C127.627 16.336 127.179 16.22 126.699 16.22C126.219 16.22 125.775 16.336 125.367 16.568C124.959 16.792 124.611 17.1 124.323 17.492C124.043 17.876 123.851 18.312 123.747 18.8Z" fill="#262626"/>
<g opacity="0.7">
<path fill-rule="evenodd" clip-rule="evenodd" d="M8.1665 58.3178C8.1665 53.7179 12.0104 50 16.6599 50C21.3226 50 25.1665 53.7179 25.1665 58.3178C25.1665 60.6357 24.3235 62.7876 22.936 64.6116C21.4053 66.6235 19.5187 68.3765 17.395 69.7524C16.909 70.0704 16.4704 70.0944 15.937 69.7524C13.8012 68.3765 11.9146 66.6235 10.397 64.6116C9.00849 62.7876 8.1665 60.6357 8.1665 58.3178ZM13.8607 58.5768C13.8607 60.1177 15.1182 61.3297 16.6599 61.3297C18.2027 61.3297 19.4723 60.1177 19.4723 58.5768C19.4723 57.0478 18.2027 55.7768 16.6599 55.7768C15.1182 55.7768 13.8607 57.0478 13.8607 58.5768Z" fill="#25A59E"/>
<path d="M39.4745 66.234C39.0305 66.234 38.5955 66.159 38.1695 66.009C37.7495 65.859 37.3685 65.637 37.0265 65.343L38.2235 63.903C38.3735 64.029 38.5535 64.137 38.7635 64.227C38.9735 64.317 39.2105 64.362 39.4745 64.362C39.8345 64.362 40.1615 64.269 40.4555 64.083C40.7555 63.891 40.9955 63.642 41.1755 63.336C41.3555 63.024 41.4455 62.691 41.4455 62.337V53.4H43.3175V62.337C43.3175 63.039 43.1435 63.687 42.7955 64.281C42.4475 64.869 41.9825 65.343 41.4005 65.703C40.8245 66.057 40.1825 66.234 39.4745 66.234ZM52.4829 57H54.3549V66H52.4739L52.4019 64.695C52.1379 65.157 51.7809 65.529 51.3309 65.811C50.8809 66.093 50.3499 66.234 49.7379 66.234C49.0779 66.234 48.4569 66.111 47.8749 65.865C47.2929 65.613 46.7799 65.265 46.3359 64.821C45.8979 64.377 45.5559 63.867 45.3099 63.291C45.0639 62.709 44.9409 62.085 44.9409 61.419C44.9409 60.777 45.0609 60.174 45.3009 59.61C45.5409 59.04 45.8739 58.542 46.2999 58.116C46.7259 57.69 47.2179 57.357 47.7759 57.117C48.3399 56.871 48.9429 56.748 49.5849 56.748C50.2389 56.748 50.8149 56.898 51.3129 57.198C51.8169 57.492 52.2339 57.87 52.5639 58.332L52.4829 57ZM49.6929 64.425C50.2209 64.425 50.6829 64.296 51.0789 64.038C51.4749 63.774 51.7809 63.42 51.9969 62.976C52.2189 62.532 52.3299 62.04 52.3299 61.5C52.3299 60.954 52.2189 60.459 51.9969 60.015C51.7749 59.571 51.4659 59.22 51.0699 58.962C50.6799 58.698 50.2209 58.566 49.6929 58.566C49.1709 58.566 48.6939 58.698 48.2619 58.962C47.8299 59.226 47.4879 59.58 47.2359 60.024C46.9839 60.468 46.8579 60.96 46.8579 61.5C46.8579 62.046 46.9869 62.541 47.2449 62.985C47.5089 63.423 47.8539 63.774 48.2799 64.038C48.7119 64.296 49.1829 64.425 49.6929 64.425ZM60.1548 66H58.2918L55.2768 57H57.1128L59.2368 63.318L61.3428 57H63.2328L65.3388 63.318L67.4538 57H69.2898L66.2838 66H64.4028L62.2788 59.637L60.1548 66ZM77.3383 57H79.2103V66H77.3293L77.2573 64.695C76.9933 65.157 76.6363 65.529 76.1863 65.811C75.7363 66.093 75.2053 66.234 74.5933 66.234C73.9333 66.234 73.3123 66.111 72.7303 65.865C72.1483 65.613 71.6353 65.265 71.1913 64.821C70.7533 64.377 70.4113 63.867 70.1653 63.291C69.9193 62.709 69.7963 62.085 69.7963 61.419C69.7963 60.777 69.9163 60.174 70.1563 59.61C70.3963 59.04 70.7293 58.542 71.1553 58.116C71.5813 57.69 72.0733 57.357 72.6313 57.117C73.1953 56.871 73.7983 56.748 74.4403 56.748C75.0943 56.748 75.6703 56.898 76.1683 57.198C76.6723 57.492 77.0893 57.87 77.4193 58.332L77.3383 57ZM74.5483 64.425C75.0763 64.425 75.5383 64.296 75.9343 64.038C76.3303 63.774 76.6363 63.42 76.8523 62.976C77.0743 62.532 77.1853 62.04 77.1853 61.5C77.1853 60.954 77.0743 60.459 76.8523 60.015C76.6303 59.571 76.3213 59.22 75.9253 58.962C75.5353 58.698 75.0763 58.566 74.5483 58.566C74.0263 58.566 73.5493 58.698 73.1173 58.962C72.6853 59.226 72.3433 59.58 72.0913 60.024C71.8393 60.468 71.7133 60.96 71.7133 61.5C71.7133 62.046 71.8423 62.541 72.1003 62.985C72.3643 63.423 72.7093 63.774 73.1353 64.038C73.5673 64.296 74.0383 64.425 74.5483 64.425ZM94.8615 53.4V55.272H90.8475V66H88.9755V55.272H84.9705V53.4H94.8615ZM99.2573 66.234C98.4293 66.234 97.6733 66.021 96.9893 65.595C96.3113 65.169 95.7683 64.599 95.3603 63.885C94.9583 63.165 94.7573 62.37 94.7573 61.5C94.7573 60.84 94.8743 60.225 95.1083 59.655C95.3423 59.079 95.6633 58.575 96.0713 58.143C96.4853 57.705 96.9653 57.363 97.5113 57.117C98.0573 56.871 98.6393 56.748 99.2573 56.748C99.9473 56.748 100.58 56.892 101.156 57.18C101.732 57.462 102.224 57.855 102.632 58.359C103.04 58.857 103.34 59.433 103.532 60.087C103.724 60.735 103.781 61.425 103.703 62.157H96.7643C96.8423 62.571 96.9923 62.946 97.2143 63.282C97.4423 63.612 97.7303 63.873 98.0783 64.065C98.4323 64.257 98.8253 64.356 99.2573 64.362C99.7133 64.362 100.127 64.248 100.499 64.02C100.877 63.792 101.186 63.477 101.426 63.075L103.325 63.516C102.965 64.314 102.422 64.968 101.696 65.478C100.97 65.982 100.157 66.234 99.2573 66.234ZM96.7013 60.726H101.813C101.753 60.294 101.6 59.904 101.354 59.556C101.114 59.202 100.811 58.923 100.445 58.719C100.085 58.509 99.6893 58.404 99.2573 58.404C98.8313 58.404 98.4353 58.506 98.0693 58.71C97.7093 58.914 97.4093 59.193 97.1693 59.547C96.9353 59.895 96.7793 60.288 96.7013 60.726ZM113.294 60.357V66H111.422V60.816C111.422 60.414 111.323 60.048 111.125 59.718C110.933 59.388 110.672 59.127 110.342 58.935C110.018 58.737 109.652 58.638 109.244 58.638C108.848 58.638 108.485 58.737 108.155 58.935C107.825 59.127 107.561 59.388 107.363 59.718C107.165 60.048 107.066 60.414 107.066 60.816V66H105.194V57H107.066V57.954C107.378 57.582 107.762 57.288 108.218 57.072C108.674 56.856 109.166 56.748 109.694 56.748C110.36 56.748 110.966 56.91 111.512 57.234C112.058 57.558 112.49 57.993 112.808 58.539C113.132 59.085 113.294 59.691 113.294 60.357ZM121.763 57H123.635V66.234C123.635 66.852 123.503 67.422 123.239 67.944C122.981 68.466 122.63 68.916 122.186 69.294C121.742 69.678 121.232 69.975 120.656 70.185C120.086 70.395 119.489 70.5 118.865 70.5C118.235 70.5 117.629 70.365 117.047 70.095C116.465 69.831 115.952 69.471 115.508 69.015C115.07 68.559 114.743 68.043 114.527 67.467L116.246 66.693C116.366 67.065 116.558 67.395 116.822 67.683C117.092 67.971 117.404 68.199 117.758 68.367C118.118 68.535 118.487 68.619 118.865 68.619C119.237 68.619 119.594 68.559 119.936 68.439C120.284 68.325 120.593 68.163 120.863 67.953C121.139 67.743 121.358 67.491 121.52 67.197C121.682 66.903 121.763 66.582 121.763 66.234V64.713C121.469 65.169 121.091 65.538 120.629 65.82C120.167 66.096 119.63 66.234 119.018 66.234C118.382 66.234 117.782 66.111 117.218 65.865C116.654 65.619 116.159 65.28 115.733 64.848C115.307 64.41 114.974 63.906 114.734 63.336C114.494 62.766 114.374 62.154 114.374 61.5C114.374 60.846 114.494 60.234 114.734 59.664C114.974 59.088 115.307 58.584 115.733 58.152C116.159 57.714 116.654 57.372 117.218 57.126C117.782 56.88 118.382 56.757 119.018 56.757C119.63 56.757 120.167 56.898 120.629 57.18C121.091 57.456 121.469 57.825 121.763 58.287V57ZM119.036 64.425C119.558 64.425 120.014 64.293 120.404 64.029C120.794 63.759 121.097 63.402 121.313 62.958C121.529 62.514 121.637 62.028 121.637 61.5C121.637 60.96 121.526 60.471 121.304 60.033C121.088 59.589 120.785 59.235 120.395 58.971C120.005 58.701 119.552 58.566 119.036 58.566C118.532 58.566 118.07 58.698 117.65 58.962C117.236 59.226 116.906 59.58 116.66 60.024C116.414 60.468 116.291 60.96 116.291 61.5C116.291 62.04 116.414 62.532 116.66 62.976C116.912 63.42 117.245 63.774 117.659 64.038C118.079 64.296 118.538 64.425 119.036 64.425ZM132.639 57H134.511V66H132.63L132.558 64.695C132.294 65.157 131.937 65.529 131.487 65.811C131.037 66.093 130.506 66.234 129.894 66.234C129.234 66.234 128.613 66.111 128.031 65.865C127.449 65.613 126.936 65.265 126.492 64.821C126.054 64.377 125.712 63.867 125.466 63.291C125.22 62.709 125.097 62.085 125.097 61.419C125.097 60.777 125.217 60.174 125.457 59.61C125.697 59.04 126.03 58.542 126.456 58.116C126.882 57.69 127.374 57.357 127.932 57.117C128.496 56.871 129.099 56.748 129.741 56.748C130.395 56.748 130.971 56.898 131.469 57.198C131.973 57.492 132.39 57.87 132.72 58.332L132.639 57ZM129.849 64.425C130.377 64.425 130.839 64.296 131.235 64.038C131.631 63.774 131.937 63.42 132.153 62.976C132.375 62.532 132.486 62.04 132.486 61.5C132.486 60.954 132.375 60.459 132.153 60.015C131.931 59.571 131.622 59.22 131.226 58.962C130.836 58.698 130.377 58.566 129.849 58.566C129.327 58.566 128.85 58.698 128.418 58.962C127.986 59.226 127.644 59.58 127.392 60.024C127.14 60.468 127.014 60.96 127.014 61.5C127.014 62.046 127.143 62.541 127.401 62.985C127.665 63.423 128.01 63.774 128.436 64.038C128.868 64.296 129.339 64.425 129.849 64.425ZM144.477 60.357V66H142.605V60.816C142.605 60.414 142.506 60.048 142.308 59.718C142.116 59.388 141.855 59.127 141.525 58.935C141.201 58.737 140.835 58.638 140.427 58.638C140.031 58.638 139.668 58.737 139.338 58.935C139.008 59.127 138.744 59.388 138.546 59.718C138.348 60.048 138.249 60.414 138.249 60.816V66H136.377V52.5H138.249V57.954C138.561 57.582 138.945 57.288 139.401 57.072C139.857 56.856 140.349 56.748 140.877 56.748C141.543 56.748 142.149 56.91 142.695 57.234C143.241 57.558 143.673 57.993 143.991 58.539C144.315 59.085 144.477 59.691 144.477 60.357ZM145.914 67.008L146.472 63.966H148.344L147.156 67.008H145.914ZM155.104 66V53.4H156.976V66H155.104ZM167.505 60.357V66H165.633V60.816C165.633 60.414 165.534 60.048 165.336 59.718C165.144 59.388 164.883 59.127 164.553 58.935C164.229 58.737 163.863 58.638 163.455 58.638C163.059 58.638 162.696 58.737 162.366 58.935C162.036 59.127 161.772 59.388 161.574 59.718C161.376 60.048 161.277 60.414 161.277 60.816V66H159.405V57H161.277V57.954C161.589 57.582 161.973 57.288 162.429 57.072C162.885 56.856 163.377 56.748 163.905 56.748C164.571 56.748 165.177 56.91 165.723 57.234C166.269 57.558 166.701 57.993 167.019 58.539C167.343 59.085 167.505 59.691 167.505 60.357ZM176.136 52.5H178.008V66H176.136V64.677C175.842 65.145 175.458 65.523 174.984 65.811C174.51 66.093 173.955 66.234 173.319 66.234C172.665 66.234 172.053 66.111 171.483 65.865C170.913 65.619 170.409 65.28 169.971 64.848C169.539 64.41 169.2 63.906 168.954 63.336C168.708 62.766 168.585 62.154 168.585 61.5C168.585 60.846 168.708 60.234 168.954 59.664C169.2 59.088 169.539 58.584 169.971 58.152C170.409 57.714 170.913 57.372 171.483 57.126C172.053 56.88 172.665 56.757 173.319 56.757C173.955 56.757 174.51 56.901 174.984 57.189C175.458 57.471 175.842 57.843 176.136 58.305V52.5ZM173.337 64.425C173.865 64.425 174.327 64.296 174.723 64.038C175.119 63.774 175.425 63.42 175.641 62.976C175.863 62.532 175.974 62.04 175.974 61.5C175.974 60.954 175.863 60.459 175.641 60.015C175.419 59.571 175.11 59.22 174.714 58.962C174.324 58.698 173.865 58.566 173.337 58.566C172.815 58.566 172.338 58.698 171.906 58.962C171.48 59.226 171.138 59.58 170.88 60.024C170.628 60.468 170.502 60.96 170.502 61.5C170.502 62.046 170.631 62.541 170.889 62.985C171.153 63.423 171.498 63.774 171.924 64.038C172.356 64.296 172.827 64.425 173.337 64.425ZM184.001 66.234C183.173 66.234 182.417 66.021 181.733 65.595C181.055 65.169 180.512 64.599 180.104 63.885C179.702 63.165 179.501 62.37 179.501 61.5C179.501 60.84 179.618 60.225 179.852 59.655C180.086 59.079 180.407 58.575 180.815 58.143C181.229 57.705 181.709 57.363 182.255 57.117C182.801 56.871 183.383 56.748 184.001 56.748C184.829 56.748 185.582 56.961 186.26 57.387C186.944 57.813 187.487 58.386 187.889 59.106C188.297 59.826 188.501 60.624 188.501 61.5C188.501 62.154 188.384 62.766 188.15 63.336C187.916 63.906 187.592 64.41 187.178 64.848C186.77 65.28 186.293 65.619 185.747 65.865C185.207 66.111 184.625 66.234 184.001 66.234ZM184.001 64.362C184.499 64.362 184.946 64.23 185.342 63.966C185.738 63.702 186.05 63.354 186.278 62.922C186.512 62.484 186.629 62.01 186.629 61.5C186.629 60.978 186.509 60.498 186.269 60.06C186.035 59.622 185.72 59.274 185.324 59.016C184.928 58.752 184.487 58.62 184.001 58.62C183.509 58.62 183.062 58.752 182.66 59.016C182.264 59.28 181.949 59.631 181.715 60.069C181.487 60.507 181.373 60.984 181.373 61.5C181.373 62.034 181.493 62.517 181.733 62.949C181.973 63.381 182.291 63.726 182.687 63.984C183.089 64.236 183.527 64.362 184.001 64.362ZM198.055 60.357V66H196.183V60.816C196.183 60.414 196.084 60.048 195.886 59.718C195.694 59.388 195.433 59.127 195.103 58.935C194.779 58.737 194.413 58.638 194.005 58.638C193.609 58.638 193.246 58.737 192.916 58.935C192.586 59.127 192.322 59.388 192.124 59.718C191.926 60.048 191.827 60.414 191.827 60.816V66H189.955V57H191.827V57.954C192.139 57.582 192.523 57.288 192.979 57.072C193.435 56.856 193.927 56.748 194.455 56.748C195.121 56.748 195.727 56.91 196.273 57.234C196.819 57.558 197.251 57.993 197.569 58.539C197.893 59.085 198.055 59.691 198.055 60.357ZM203.636 66.234C202.808 66.234 202.052 66.021 201.368 65.595C200.69 65.169 200.147 64.599 199.739 63.885C199.337 63.165 199.136 62.37 199.136 61.5C199.136 60.84 199.253 60.225 199.487 59.655C199.721 59.079 200.042 58.575 200.45 58.143C200.864 57.705 201.344 57.363 201.89 57.117C202.436 56.871 203.018 56.748 203.636 56.748C204.326 56.748 204.959 56.892 205.535 57.18C206.111 57.462 206.603 57.855 207.011 58.359C207.419 58.857 207.719 59.433 207.911 60.087C208.103 60.735 208.16 61.425 208.082 62.157H201.143C201.221 62.571 201.371 62.946 201.593 63.282C201.821 63.612 202.109 63.873 202.457 64.065C202.811 64.257 203.204 64.356 203.636 64.362C204.092 64.362 204.506 64.248 204.878 64.02C205.256 63.792 205.565 63.477 205.805 63.075L207.704 63.516C207.344 64.314 206.801 64.968 206.075 65.478C205.349 65.982 204.536 66.234 203.636 66.234ZM201.08 60.726H206.192C206.132 60.294 205.979 59.904 205.733 59.556C205.493 59.202 205.19 58.923 204.824 58.719C204.464 58.509 204.068 58.404 203.636 58.404C203.21 58.404 202.814 58.506 202.448 58.71C202.088 58.914 201.788 59.193 201.548 59.547C201.314 59.895 201.158 60.288 201.08 60.726ZM212.308 66.171C211.834 66.141 211.372 66.045 210.922 65.883C210.472 65.721 210.076 65.502 209.734 65.226C209.398 64.944 209.146 64.614 208.978 64.236L210.571 63.552C210.649 63.714 210.784 63.873 210.976 64.029C211.174 64.185 211.405 64.314 211.669 64.416C211.933 64.512 212.209 64.56 212.497 64.56C212.779 64.56 213.04 64.521 213.28 64.443C213.526 64.359 213.727 64.233 213.883 64.065C214.039 63.897 214.117 63.696 214.117 63.462C214.117 63.198 214.027 62.994 213.847 62.85C213.673 62.7 213.454 62.586 213.19 62.508C212.926 62.43 212.662 62.355 212.398 62.283C211.81 62.151 211.27 61.971 210.778 61.743C210.292 61.509 209.905 61.212 209.617 60.852C209.329 60.486 209.185 60.039 209.185 59.511C209.185 58.935 209.341 58.437 209.653 58.017C209.965 57.591 210.373 57.264 210.877 57.036C211.387 56.808 211.93 56.694 212.506 56.694C213.226 56.694 213.886 56.847 214.486 57.153C215.086 57.459 215.545 57.879 215.863 58.413L214.378 59.295C214.288 59.115 214.153 58.953 213.973 58.809C213.793 58.665 213.589 58.551 213.361 58.467C213.133 58.377 212.896 58.326 212.65 58.314C212.344 58.302 212.059 58.338 211.795 58.422C211.537 58.5 211.33 58.626 211.174 58.8C211.018 58.974 210.94 59.196 210.94 59.466C210.94 59.73 211.033 59.928 211.219 60.06C211.405 60.186 211.639 60.288 211.921 60.366C212.209 60.444 212.503 60.531 212.803 60.627C213.337 60.795 213.838 61.002 214.306 61.248C214.774 61.488 215.152 61.785 215.44 62.139C215.728 62.493 215.866 62.925 215.854 63.435C215.854 63.999 215.683 64.494 215.341 64.92C215.005 65.346 214.567 65.67 214.027 65.892C213.487 66.114 212.914 66.207 212.308 66.171ZM217.237 57H219.109V66H217.237V57ZM218.191 55.695C217.903 55.695 217.663 55.602 217.471 55.416C217.279 55.23 217.183 54.996 217.183 54.714C217.183 54.438 217.279 54.207 217.471 54.021C217.663 53.829 217.9 53.733 218.182 53.733C218.458 53.733 218.692 53.829 218.884 54.021C219.076 54.207 219.172 54.438 219.172 54.714C219.172 54.996 219.076 55.23 218.884 55.416C218.698 55.602 218.467 55.695 218.191 55.695ZM228.106 57H229.978V66H228.097L228.025 64.695C227.761 65.157 227.404 65.529 226.954 65.811C226.504 66.093 225.973 66.234 225.361 66.234C224.701 66.234 224.08 66.111 223.498 65.865C222.916 65.613 222.403 65.265 221.959 64.821C221.521 64.377 221.179 63.867 220.933 63.291C220.687 62.709 220.564 62.085 220.564 61.419C220.564 60.777 220.684 60.174 220.924 59.61C221.164 59.04 221.497 58.542 221.923 58.116C222.349 57.69 222.841 57.357 223.399 57.117C223.963 56.871 224.566 56.748 225.208 56.748C225.862 56.748 226.438 56.898 226.936 57.198C227.44 57.492 227.857 57.87 228.187 58.332L228.106 57ZM225.316 64.425C225.844 64.425 226.306 64.296 226.702 64.038C227.098 63.774 227.404 63.42 227.62 62.976C227.842 62.532 227.953 62.04 227.953 61.5C227.953 60.954 227.842 60.459 227.62 60.015C227.398 59.571 227.089 59.22 226.693 58.962C226.303 58.698 225.844 58.566 225.316 58.566C224.794 58.566 224.317 58.698 223.885 58.962C223.453 59.226 223.111 59.58 222.859 60.024C222.607 60.468 222.481 60.96 222.481 61.5C222.481 62.046 222.61 62.541 222.868 62.985C223.132 63.423 223.477 63.774 223.903 64.038C224.335 64.296 224.806 64.425 225.316 64.425Z" fill="#262626"/>
</g>
</svg>
