<svg width="339" height="76" viewBox="0 0 339 76" fill="none" xmlns="http://www.w3.org/2000/svg">
<path d="M5.7735 26V9.2H8.9415L16.0335 20.708V9.2H18.9615V26H15.8055L8.7015 14.492V26H5.7735ZM26.9441 26.312C25.8401 26.312 24.8321 26.028 23.9201 25.46C23.0161 24.892 22.2921 24.128 21.7481 23.168C21.2121 22.208 20.9441 21.148 20.9441 19.988C20.9441 19.116 21.1001 18.3 21.4121 17.54C21.7241 16.772 22.1521 16.1 22.6961 15.524C23.2481 14.94 23.8881 14.484 24.6161 14.156C25.3441 13.828 26.1201 13.664 26.9441 13.664C27.8801 13.664 28.7361 13.864 29.5121 14.264C30.2961 14.656 30.9601 15.196 31.5041 15.884C32.0481 16.572 32.4441 17.356 32.6921 18.236C32.9401 19.116 32.9961 20.036 32.8601 20.996H24.0881C24.2001 21.444 24.3841 21.848 24.6401 22.208C24.8961 22.56 25.2201 22.844 25.6121 23.06C26.0041 23.268 26.4481 23.376 26.9441 23.384C27.4561 23.392 27.9201 23.272 28.3361 23.024C28.7601 22.768 29.1121 22.424 29.3921 21.992L32.3801 22.688C31.8921 23.752 31.1641 24.624 30.1961 25.304C29.2281 25.976 28.1441 26.312 26.9441 26.312ZM23.9921 18.8H29.8961C29.8081 18.32 29.6201 17.888 29.3321 17.504C29.0521 17.112 28.7041 16.8 28.2881 16.568C27.8721 16.336 27.4241 16.22 26.9441 16.22C26.4641 16.22 26.0201 16.336 25.6121 16.568C25.2041 16.792 24.8561 17.1 24.5681 17.492C24.2881 17.876 24.0961 18.312 23.9921 18.8ZM43.7634 14H46.6914V26.228C46.6914 27.092 46.5154 27.876 46.1634 28.58C45.8114 29.292 45.3314 29.9 44.7234 30.404C44.1154 30.916 43.4194 31.308 42.6354 31.58C41.8514 31.86 41.0274 32 40.1634 32C39.3234 32 38.5154 31.828 37.7394 31.484C36.9634 31.14 36.2754 30.668 35.6754 30.068C35.0834 29.476 34.6314 28.8 34.3194 28.04L36.9954 26.828C37.1554 27.268 37.3954 27.652 37.7154 27.98C38.0434 28.316 38.4194 28.576 38.8434 28.76C39.2674 28.952 39.7074 29.048 40.1634 29.048C40.6274 29.048 41.0714 28.984 41.4954 28.856C41.9274 28.728 42.3154 28.54 42.6594 28.292C43.0034 28.052 43.2714 27.756 43.4634 27.404C43.6634 27.06 43.7634 26.668 43.7634 26.228V24.536C43.3874 25.064 42.9154 25.492 42.3474 25.82C41.7794 26.148 41.1234 26.312 40.3794 26.312C39.5154 26.312 38.7074 26.148 37.9554 25.82C37.2034 25.492 36.5394 25.04 35.9634 24.464C35.3954 23.88 34.9474 23.208 34.6194 22.448C34.2994 21.688 34.1394 20.872 34.1394 20C34.1394 19.128 34.2994 18.312 34.6194 17.552C34.9474 16.792 35.3954 16.124 35.9634 15.548C36.5394 14.964 37.2034 14.508 37.9554 14.18C38.7074 13.852 39.5154 13.688 40.3794 13.688C41.1234 13.688 41.7794 13.852 42.3474 14.18C42.9154 14.5 43.3874 14.924 43.7634 15.452V14ZM40.4154 23.492C41.0314 23.492 41.5754 23.336 42.0474 23.024C42.5274 22.704 42.9034 22.28 43.1754 21.752C43.4474 21.216 43.5834 20.632 43.5834 20C43.5834 19.36 43.4434 18.776 43.1634 18.248C42.8914 17.72 42.5154 17.296 42.0354 16.976C41.5634 16.656 41.0234 16.496 40.4154 16.496C39.8154 16.496 39.2674 16.656 38.7714 16.976C38.2754 17.288 37.8794 17.708 37.5834 18.236C37.2874 18.764 37.1394 19.352 37.1394 20C37.1394 20.648 37.2874 21.236 37.5834 21.764C37.8794 22.292 38.2754 22.712 38.7714 23.024C39.2674 23.336 39.8154 23.492 40.4154 23.492ZM54.5769 26.312C53.4729 26.312 52.4649 26.028 51.5529 25.46C50.6489 24.892 49.9249 24.128 49.3809 23.168C48.8449 22.208 48.5769 21.148 48.5769 19.988C48.5769 19.116 48.7329 18.3 49.0449 17.54C49.3569 16.772 49.7849 16.1 50.3289 15.524C50.8809 14.94 51.5209 14.484 52.2489 14.156C52.9769 13.828 53.7529 13.664 54.5769 13.664C55.5129 13.664 56.3689 13.864 57.1449 14.264C57.9289 14.656 58.5929 15.196 59.1369 15.884C59.6809 16.572 60.0769 17.356 60.3249 18.236C60.5729 19.116 60.6289 20.036 60.4929 20.996H51.7209C51.8329 21.444 52.0169 21.848 52.2729 22.208C52.5289 22.56 52.8529 22.844 53.2449 23.06C53.6369 23.268 54.0809 23.376 54.5769 23.384C55.0889 23.392 55.5529 23.272 55.9689 23.024C56.3929 22.768 56.7449 22.424 57.0249 21.992L60.0129 22.688C59.5249 23.752 58.7969 24.624 57.8289 25.304C56.8609 25.976 55.7769 26.312 54.5769 26.312ZM51.6249 18.8H57.5289C57.4409 18.32 57.2529 17.888 56.9649 17.504C56.6849 17.112 56.3369 16.8 55.9209 16.568C55.5049 16.336 55.0569 16.22 54.5769 16.22C54.0969 16.22 53.6529 16.336 53.2449 16.568C52.8369 16.792 52.4889 17.1 52.2009 17.492C51.9209 17.876 51.7289 18.312 51.6249 18.8ZM62.4574 26L62.4454 14H65.3734L65.3854 15.068C65.7934 14.636 66.2814 14.296 66.8494 14.048C67.4174 13.792 68.0294 13.664 68.6854 13.664C69.1254 13.664 69.5654 13.728 70.0054 13.856L68.8534 16.808C68.5494 16.688 68.2454 16.628 67.9414 16.628C67.4694 16.628 67.0374 16.744 66.6454 16.976C66.2614 17.2 65.9534 17.508 65.7214 17.9C65.4974 18.284 65.3854 18.712 65.3854 19.184V26H62.4574ZM71.3047 14H74.2327V26H71.3047V14ZM72.7927 12.452C72.3607 12.452 71.9967 12.312 71.7007 12.032C71.4047 11.744 71.2567 11.384 71.2567 10.952C71.2567 10.528 71.4047 10.172 71.7007 9.884C71.9967 9.596 72.3567 9.452 72.7807 9.452C73.2047 9.452 73.5607 9.596 73.8487 9.884C74.1447 10.172 74.2927 10.528 74.2927 10.952C74.2927 11.384 74.1487 11.744 73.8607 12.032C73.5727 12.312 73.2167 12.452 72.7927 12.452ZM91.9549 8H94.8829V26H91.9549V24.5C91.5709 25.036 91.0869 25.472 90.5029 25.808C89.9189 26.144 89.2429 26.312 88.4749 26.312C87.6029 26.312 86.7869 26.148 86.0269 25.82C85.2669 25.492 84.5949 25.04 84.0109 24.464C83.4349 23.88 82.9829 23.208 82.6549 22.448C82.3269 21.688 82.1629 20.872 82.1629 20C82.1629 19.128 82.3269 18.312 82.6549 17.552C82.9829 16.792 83.4349 16.124 84.0109 15.548C84.5949 14.964 85.2669 14.508 86.0269 14.18C86.7869 13.852 87.6029 13.688 88.4749 13.688C89.2429 13.688 89.9189 13.856 90.5029 14.192C91.0869 14.52 91.5709 14.956 91.9549 15.5V8ZM88.5109 23.492C89.1349 23.492 89.6869 23.336 90.1669 23.024C90.6469 22.712 91.0229 22.292 91.2949 21.764C91.5669 21.228 91.7029 20.64 91.7029 20C91.7029 19.352 91.5669 18.764 91.2949 18.236C91.0229 17.7 90.6429 17.276 90.1549 16.964C89.6749 16.652 89.1269 16.496 88.5109 16.496C87.8949 16.496 87.3309 16.656 86.8189 16.976C86.3149 17.288 85.9109 17.708 85.6069 18.236C85.3109 18.764 85.1629 19.352 85.1629 20C85.1629 20.648 85.3149 21.236 85.6189 21.764C85.9229 22.292 86.3269 22.712 86.8309 23.024C87.3429 23.336 87.9029 23.492 88.5109 23.492ZM97.7657 14H100.694V26H97.7657V14ZM99.2537 12.452C98.8217 12.452 98.4577 12.312 98.1617 12.032C97.8657 11.744 97.7177 11.384 97.7177 10.952C97.7177 10.528 97.8657 10.172 98.1617 9.884C98.4577 9.596 98.8177 9.452 99.2417 9.452C99.6657 9.452 100.022 9.596 100.31 9.884C100.606 10.172 100.754 10.528 100.754 10.952C100.754 11.384 100.61 11.744 100.322 12.032C100.034 12.312 99.6777 12.452 99.2537 12.452ZM118.392 14H121.32V26H118.392L118.26 24.512C117.932 25.048 117.496 25.484 116.952 25.82C116.416 26.148 115.78 26.312 115.044 26.312C114.156 26.312 113.324 26.144 112.548 25.808C111.772 25.472 111.088 25.008 110.496 24.416C109.912 23.824 109.452 23.14 109.116 22.364C108.788 21.588 108.624 20.756 108.624 19.868C108.624 19.012 108.78 18.208 109.092 17.456C109.412 16.704 109.856 16.044 110.424 15.476C110.992 14.908 111.648 14.464 112.392 14.144C113.136 13.824 113.936 13.664 114.792 13.664C115.584 13.664 116.292 13.84 116.916 14.192C117.548 14.544 118.084 14.992 118.524 15.536L118.392 14ZM114.972 23.492C115.596 23.492 116.148 23.336 116.628 23.024C117.108 22.712 117.484 22.292 117.756 21.764C118.028 21.228 118.164 20.64 118.164 20C118.164 19.352 118.028 18.764 117.756 18.236C117.484 17.7 117.104 17.276 116.616 16.964C116.136 16.652 115.588 16.496 114.972 16.496C114.356 16.496 113.792 16.656 113.28 16.976C112.776 17.288 112.372 17.708 112.068 18.236C111.772 18.764 111.624 19.352 111.624 20C111.624 20.648 111.776 21.236 112.08 21.764C112.384 22.292 112.788 22.712 113.292 23.024C113.804 23.336 114.364 23.492 114.972 23.492ZM130.143 16.928H127.815V26H124.887V16.928H123.111V14H124.887V10.232H127.815V14H130.143V16.928ZM141.079 14H144.007V26H141.079L140.947 24.512C140.619 25.048 140.183 25.484 139.639 25.82C139.103 26.148 138.467 26.312 137.731 26.312C136.843 26.312 136.011 26.144 135.235 25.808C134.459 25.472 133.775 25.008 133.183 24.416C132.599 23.824 132.139 23.14 131.803 22.364C131.475 21.588 131.311 20.756 131.311 19.868C131.311 19.012 131.467 18.208 131.779 17.456C132.099 16.704 132.543 16.044 133.111 15.476C133.679 14.908 134.335 14.464 135.079 14.144C135.823 13.824 136.623 13.664 137.479 13.664C138.271 13.664 138.979 13.84 139.603 14.192C140.235 14.544 140.771 14.992 141.211 15.536L141.079 14ZM137.659 23.492C138.283 23.492 138.835 23.336 139.315 23.024C139.795 22.712 140.171 22.292 140.443 21.764C140.715 21.228 140.851 20.64 140.851 20C140.851 19.352 140.715 18.764 140.443 18.236C140.171 17.7 139.791 17.276 139.303 16.964C138.823 16.652 138.275 16.496 137.659 16.496C137.043 16.496 136.479 16.656 135.967 16.976C135.463 17.288 135.059 17.708 134.755 18.236C134.459 18.764 134.311 19.352 134.311 20C134.311 20.648 134.463 21.236 134.767 21.764C135.071 22.292 135.475 22.712 135.979 23.024C136.491 23.336 137.051 23.492 137.659 23.492ZM149.938 26.216C149.314 26.176 148.71 26.052 148.126 25.844C147.55 25.628 147.038 25.336 146.59 24.968C146.142 24.6 145.798 24.16 145.558 23.648L148.03 22.592C148.126 22.752 148.282 22.924 148.498 23.108C148.714 23.284 148.97 23.432 149.266 23.552C149.57 23.672 149.902 23.732 150.262 23.732C150.566 23.732 150.854 23.692 151.126 23.612C151.406 23.524 151.63 23.392 151.798 23.216C151.974 23.04 152.062 22.812 152.062 22.532C152.062 22.236 151.958 22.008 151.75 21.848C151.55 21.68 151.294 21.556 150.982 21.476C150.678 21.388 150.382 21.308 150.094 21.236C149.334 21.084 148.626 20.848 147.97 20.528C147.322 20.208 146.798 19.796 146.398 19.292C146.006 18.78 145.81 18.164 145.81 17.444C145.81 16.652 146.018 15.968 146.434 15.392C146.858 14.816 147.406 14.372 148.078 14.06C148.758 13.748 149.49 13.592 150.274 13.592C151.226 13.592 152.098 13.792 152.89 14.192C153.69 14.584 154.322 15.14 154.786 15.86L152.47 17.228C152.358 17.036 152.202 16.86 152.002 16.7C151.802 16.532 151.574 16.396 151.318 16.292C151.062 16.18 150.794 16.116 150.514 16.1C150.154 16.084 149.826 16.116 149.53 16.196C149.234 16.276 148.994 16.412 148.81 16.604C148.634 16.796 148.546 17.052 148.546 17.372C148.546 17.676 148.666 17.904 148.906 18.056C149.146 18.2 149.434 18.312 149.77 18.392C150.114 18.472 150.442 18.56 150.754 18.656C151.458 18.888 152.118 19.172 152.734 19.508C153.358 19.844 153.858 20.256 154.234 20.744C154.61 21.232 154.79 21.816 154.774 22.496C154.774 23.272 154.542 23.952 154.078 24.536C153.614 25.112 153.014 25.552 152.278 25.856C151.55 26.16 150.77 26.28 149.938 26.216ZM168.21 9.2H171.582L177.69 26H174.582L173.502 23.024H166.302L165.222 26H162.114L168.21 9.2ZM167.37 20.096H172.422L169.89 13.172L167.37 20.096ZM184.301 26H181.397L177.389 14H180.257L182.861 21.764L185.453 14H188.345L190.937 21.764L193.541 14H196.409L192.401 26H189.497L186.893 18.2L184.301 26ZM206.775 14H209.703V26H206.775L206.643 24.512C206.315 25.048 205.879 25.484 205.335 25.82C204.799 26.148 204.163 26.312 203.427 26.312C202.539 26.312 201.707 26.144 200.931 25.808C200.155 25.472 199.471 25.008 198.879 24.416C198.295 23.824 197.835 23.14 197.499 22.364C197.171 21.588 197.007 20.756 197.007 19.868C197.007 19.012 197.163 18.208 197.475 17.456C197.795 16.704 198.239 16.044 198.807 15.476C199.375 14.908 200.031 14.464 200.775 14.144C201.519 13.824 202.319 13.664 203.175 13.664C203.967 13.664 204.675 13.84 205.299 14.192C205.931 14.544 206.467 14.992 206.907 15.536L206.775 14ZM203.355 23.492C203.979 23.492 204.531 23.336 205.011 23.024C205.491 22.712 205.867 22.292 206.139 21.764C206.411 21.228 206.547 20.64 206.547 20C206.547 19.352 206.411 18.764 206.139 18.236C205.867 17.7 205.487 17.276 204.999 16.964C204.519 16.652 203.971 16.496 203.355 16.496C202.739 16.496 202.175 16.656 201.663 16.976C201.159 17.288 200.755 17.708 200.451 18.236C200.155 18.764 200.007 19.352 200.007 20C200.007 20.648 200.159 21.236 200.463 21.764C200.767 22.292 201.171 22.712 201.675 23.024C202.187 23.336 202.747 23.492 203.355 23.492ZM223.086 18.416V26H220.158V19.184C220.158 18.712 220.042 18.284 219.81 17.9C219.578 17.508 219.266 17.2 218.874 16.976C218.49 16.744 218.062 16.628 217.59 16.628C217.118 16.628 216.686 16.744 216.294 16.976C215.91 17.2 215.602 17.508 215.37 17.9C215.146 18.284 215.034 18.712 215.034 19.184V26H212.106L212.094 14H215.022L215.034 15.068C215.442 14.636 215.93 14.296 216.498 14.048C217.066 13.792 217.678 13.664 218.334 13.664C219.206 13.664 220.002 13.88 220.722 14.312C221.442 14.736 222.014 15.308 222.438 16.028C222.87 16.74 223.086 17.536 223.086 18.416Z" fill="#262626"/>
<g opacity="0.7">
<path fill-rule="evenodd" clip-rule="evenodd" d="M7.8335 58.3178C7.8335 53.7179 11.6774 50 16.3269 50C20.9896 50 24.8335 53.7179 24.8335 58.3178C24.8335 60.6357 23.9905 62.7876 22.603 64.6116C21.0723 66.6235 19.1857 68.3765 17.062 69.7524C16.576 70.0704 16.1374 70.0944 15.6039 69.7524C13.4682 68.3765 11.5816 66.6235 10.064 64.6116C8.67548 62.7876 7.8335 60.6357 7.8335 58.3178ZM13.5277 58.5768C13.5277 60.1177 14.7852 61.3297 16.3269 61.3297C17.8697 61.3297 19.1393 60.1177 19.1393 58.5768C19.1393 57.0478 17.8697 55.7768 16.3269 55.7768C14.7852 55.7768 13.5277 57.0478 13.5277 58.5768Z" fill="#25A59E"/>
<path d="M39.1415 66.234C38.6975 66.234 38.2625 66.159 37.8365 66.009C37.4165 65.859 37.0355 65.637 36.6935 65.343L37.8905 63.903C38.0405 64.029 38.2205 64.137 38.4305 64.227C38.6405 64.317 38.8775 64.362 39.1415 64.362C39.5015 64.362 39.8285 64.269 40.1225 64.083C40.4225 63.891 40.6625 63.642 40.8425 63.336C41.0225 63.024 41.1125 62.691 41.1125 62.337V53.4H42.9845V62.337C42.9845 63.039 42.8105 63.687 42.4625 64.281C42.1145 64.869 41.6495 65.343 41.0675 65.703C40.4915 66.057 39.8495 66.234 39.1415 66.234ZM52.1499 57H54.0219V66H52.1409L52.0689 64.695C51.8049 65.157 51.4479 65.529 50.9979 65.811C50.5479 66.093 50.0169 66.234 49.4049 66.234C48.7449 66.234 48.1239 66.111 47.5419 65.865C46.9599 65.613 46.4469 65.265 46.0029 64.821C45.5649 64.377 45.2229 63.867 44.9769 63.291C44.7309 62.709 44.6079 62.085 44.6079 61.419C44.6079 60.777 44.7279 60.174 44.9679 59.61C45.2079 59.04 45.5409 58.542 45.9669 58.116C46.3929 57.69 46.8849 57.357 47.4429 57.117C48.0069 56.871 48.6099 56.748 49.2519 56.748C49.9059 56.748 50.4819 56.898 50.9799 57.198C51.4839 57.492 51.9009 57.87 52.2309 58.332L52.1499 57ZM49.3599 64.425C49.8879 64.425 50.3499 64.296 50.7459 64.038C51.1419 63.774 51.4479 63.42 51.6639 62.976C51.8859 62.532 51.9969 62.04 51.9969 61.5C51.9969 60.954 51.8859 60.459 51.6639 60.015C51.4419 59.571 51.1329 59.22 50.7369 58.962C50.3469 58.698 49.8879 58.566 49.3599 58.566C48.8379 58.566 48.3609 58.698 47.9289 58.962C47.4969 59.226 47.1549 59.58 46.9029 60.024C46.6509 60.468 46.5249 60.96 46.5249 61.5C46.5249 62.046 46.6539 62.541 46.9119 62.985C47.1759 63.423 47.5209 63.774 47.9469 64.038C48.3789 64.296 48.8499 64.425 49.3599 64.425ZM59.8218 66H57.9588L54.9438 57H56.7798L58.9038 63.318L61.0098 57H62.8998L65.0058 63.318L67.1208 57H68.9568L65.9508 66H64.0698L61.9458 59.637L59.8218 66ZM77.0053 57H78.8773V66H76.9963L76.9243 64.695C76.6603 65.157 76.3033 65.529 75.8533 65.811C75.4033 66.093 74.8723 66.234 74.2603 66.234C73.6003 66.234 72.9793 66.111 72.3973 65.865C71.8153 65.613 71.3023 65.265 70.8583 64.821C70.4203 64.377 70.0783 63.867 69.8323 63.291C69.5863 62.709 69.4633 62.085 69.4633 61.419C69.4633 60.777 69.5833 60.174 69.8233 59.61C70.0633 59.04 70.3963 58.542 70.8223 58.116C71.2483 57.69 71.7403 57.357 72.2983 57.117C72.8623 56.871 73.4653 56.748 74.1073 56.748C74.7613 56.748 75.3373 56.898 75.8353 57.198C76.3393 57.492 76.7563 57.87 77.0863 58.332L77.0053 57ZM74.2153 64.425C74.7433 64.425 75.2053 64.296 75.6013 64.038C75.9973 63.774 76.3033 63.42 76.5193 62.976C76.7413 62.532 76.8523 62.04 76.8523 61.5C76.8523 60.954 76.7413 60.459 76.5193 60.015C76.2973 59.571 75.9883 59.22 75.5923 58.962C75.2023 58.698 74.7433 58.566 74.2153 58.566C73.6933 58.566 73.2163 58.698 72.7843 58.962C72.3523 59.226 72.0103 59.58 71.7583 60.024C71.5063 60.468 71.3803 60.96 71.3803 61.5C71.3803 62.046 71.5093 62.541 71.7673 62.985C72.0313 63.423 72.3763 63.774 72.8023 64.038C73.2343 64.296 73.7053 64.425 74.2153 64.425ZM94.5285 53.4V55.272H90.5145V66H88.6425V55.272H84.6375V53.4H94.5285ZM98.9243 66.234C98.0963 66.234 97.3403 66.021 96.6563 65.595C95.9783 65.169 95.4353 64.599 95.0273 63.885C94.6253 63.165 94.4243 62.37 94.4243 61.5C94.4243 60.84 94.5413 60.225 94.7753 59.655C95.0093 59.079 95.3303 58.575 95.7383 58.143C96.1523 57.705 96.6323 57.363 97.1783 57.117C97.7243 56.871 98.3063 56.748 98.9243 56.748C99.6143 56.748 100.247 56.892 100.823 57.18C101.399 57.462 101.891 57.855 102.299 58.359C102.707 58.857 103.007 59.433 103.199 60.087C103.391 60.735 103.448 61.425 103.37 62.157H96.4313C96.5093 62.571 96.6593 62.946 96.8813 63.282C97.1093 63.612 97.3973 63.873 97.7453 64.065C98.0993 64.257 98.4923 64.356 98.9243 64.362C99.3803 64.362 99.7943 64.248 100.166 64.02C100.544 63.792 100.853 63.477 101.093 63.075L102.992 63.516C102.632 64.314 102.089 64.968 101.363 65.478C100.637 65.982 99.8243 66.234 98.9243 66.234ZM96.3683 60.726H101.48C101.42 60.294 101.267 59.904 101.021 59.556C100.781 59.202 100.478 58.923 100.112 58.719C99.7523 58.509 99.3563 58.404 98.9243 58.404C98.4983 58.404 98.1023 58.506 97.7363 58.71C97.3763 58.914 97.0763 59.193 96.8363 59.547C96.6023 59.895 96.4463 60.288 96.3683 60.726ZM112.961 60.357V66H111.089V60.816C111.089 60.414 110.99 60.048 110.792 59.718C110.6 59.388 110.339 59.127 110.009 58.935C109.685 58.737 109.319 58.638 108.911 58.638C108.515 58.638 108.152 58.737 107.822 58.935C107.492 59.127 107.228 59.388 107.03 59.718C106.832 60.048 106.733 60.414 106.733 60.816V66H104.861V57H106.733V57.954C107.045 57.582 107.429 57.288 107.885 57.072C108.341 56.856 108.833 56.748 109.361 56.748C110.027 56.748 110.633 56.91 111.179 57.234C111.725 57.558 112.157 57.993 112.475 58.539C112.799 59.085 112.961 59.691 112.961 60.357ZM121.43 57H123.302V66.234C123.302 66.852 123.17 67.422 122.906 67.944C122.648 68.466 122.297 68.916 121.853 69.294C121.409 69.678 120.899 69.975 120.323 70.185C119.753 70.395 119.156 70.5 118.532 70.5C117.902 70.5 117.296 70.365 116.714 70.095C116.132 69.831 115.619 69.471 115.175 69.015C114.737 68.559 114.41 68.043 114.194 67.467L115.913 66.693C116.033 67.065 116.225 67.395 116.489 67.683C116.759 67.971 117.071 68.199 117.425 68.367C117.785 68.535 118.154 68.619 118.532 68.619C118.904 68.619 119.261 68.559 119.603 68.439C119.951 68.325 120.26 68.163 120.53 67.953C120.806 67.743 121.025 67.491 121.187 67.197C121.349 66.903 121.43 66.582 121.43 66.234V64.713C121.136 65.169 120.758 65.538 120.296 65.82C119.834 66.096 119.297 66.234 118.685 66.234C118.049 66.234 117.449 66.111 116.885 65.865C116.321 65.619 115.826 65.28 115.4 64.848C114.974 64.41 114.641 63.906 114.401 63.336C114.161 62.766 114.041 62.154 114.041 61.5C114.041 60.846 114.161 60.234 114.401 59.664C114.641 59.088 114.974 58.584 115.4 58.152C115.826 57.714 116.321 57.372 116.885 57.126C117.449 56.88 118.049 56.757 118.685 56.757C119.297 56.757 119.834 56.898 120.296 57.18C120.758 57.456 121.136 57.825 121.43 58.287V57ZM118.703 64.425C119.225 64.425 119.681 64.293 120.071 64.029C120.461 63.759 120.764 63.402 120.98 62.958C121.196 62.514 121.304 62.028 121.304 61.5C121.304 60.96 121.193 60.471 120.971 60.033C120.755 59.589 120.452 59.235 120.062 58.971C119.672 58.701 119.219 58.566 118.703 58.566C118.199 58.566 117.737 58.698 117.317 58.962C116.903 59.226 116.573 59.58 116.327 60.024C116.081 60.468 115.958 60.96 115.958 61.5C115.958 62.04 116.081 62.532 116.327 62.976C116.579 63.42 116.912 63.774 117.326 64.038C117.746 64.296 118.205 64.425 118.703 64.425ZM132.306 57H134.178V66H132.297L132.225 64.695C131.961 65.157 131.604 65.529 131.154 65.811C130.704 66.093 130.173 66.234 129.561 66.234C128.901 66.234 128.28 66.111 127.698 65.865C127.116 65.613 126.603 65.265 126.159 64.821C125.721 64.377 125.379 63.867 125.133 63.291C124.887 62.709 124.764 62.085 124.764 61.419C124.764 60.777 124.884 60.174 125.124 59.61C125.364 59.04 125.697 58.542 126.123 58.116C126.549 57.69 127.041 57.357 127.599 57.117C128.163 56.871 128.766 56.748 129.408 56.748C130.062 56.748 130.638 56.898 131.136 57.198C131.64 57.492 132.057 57.87 132.387 58.332L132.306 57ZM129.516 64.425C130.044 64.425 130.506 64.296 130.902 64.038C131.298 63.774 131.604 63.42 131.82 62.976C132.042 62.532 132.153 62.04 132.153 61.5C132.153 60.954 132.042 60.459 131.82 60.015C131.598 59.571 131.289 59.22 130.893 58.962C130.503 58.698 130.044 58.566 129.516 58.566C128.994 58.566 128.517 58.698 128.085 58.962C127.653 59.226 127.311 59.58 127.059 60.024C126.807 60.468 126.681 60.96 126.681 61.5C126.681 62.046 126.81 62.541 127.068 62.985C127.332 63.423 127.677 63.774 128.103 64.038C128.535 64.296 129.006 64.425 129.516 64.425ZM144.144 60.357V66H142.272V60.816C142.272 60.414 142.173 60.048 141.975 59.718C141.783 59.388 141.522 59.127 141.192 58.935C140.868 58.737 140.502 58.638 140.094 58.638C139.698 58.638 139.335 58.737 139.005 58.935C138.675 59.127 138.411 59.388 138.213 59.718C138.015 60.048 137.916 60.414 137.916 60.816V66H136.044V52.5H137.916V57.954C138.228 57.582 138.612 57.288 139.068 57.072C139.524 56.856 140.016 56.748 140.544 56.748C141.21 56.748 141.816 56.91 142.362 57.234C142.908 57.558 143.34 57.993 143.658 58.539C143.982 59.085 144.144 59.691 144.144 60.357ZM145.581 67.008L146.139 63.966H148.011L146.823 67.008H145.581ZM154.771 66V53.4H156.643V66H154.771ZM167.172 60.357V66H165.3V60.816C165.3 60.414 165.201 60.048 165.003 59.718C164.811 59.388 164.55 59.127 164.22 58.935C163.896 58.737 163.53 58.638 163.122 58.638C162.726 58.638 162.363 58.737 162.033 58.935C161.703 59.127 161.439 59.388 161.241 59.718C161.043 60.048 160.944 60.414 160.944 60.816V66H159.072V57H160.944V57.954C161.256 57.582 161.64 57.288 162.096 57.072C162.552 56.856 163.044 56.748 163.572 56.748C164.238 56.748 164.844 56.91 165.39 57.234C165.936 57.558 166.368 57.993 166.686 58.539C167.01 59.085 167.172 59.691 167.172 60.357ZM175.803 52.5H177.675V66H175.803V64.677C175.509 65.145 175.125 65.523 174.651 65.811C174.177 66.093 173.622 66.234 172.986 66.234C172.332 66.234 171.72 66.111 171.15 65.865C170.58 65.619 170.076 65.28 169.638 64.848C169.206 64.41 168.867 63.906 168.621 63.336C168.375 62.766 168.252 62.154 168.252 61.5C168.252 60.846 168.375 60.234 168.621 59.664C168.867 59.088 169.206 58.584 169.638 58.152C170.076 57.714 170.58 57.372 171.15 57.126C171.72 56.88 172.332 56.757 172.986 56.757C173.622 56.757 174.177 56.901 174.651 57.189C175.125 57.471 175.509 57.843 175.803 58.305V52.5ZM173.004 64.425C173.532 64.425 173.994 64.296 174.39 64.038C174.786 63.774 175.092 63.42 175.308 62.976C175.53 62.532 175.641 62.04 175.641 61.5C175.641 60.954 175.53 60.459 175.308 60.015C175.086 59.571 174.777 59.22 174.381 58.962C173.991 58.698 173.532 58.566 173.004 58.566C172.482 58.566 172.005 58.698 171.573 58.962C171.147 59.226 170.805 59.58 170.547 60.024C170.295 60.468 170.169 60.96 170.169 61.5C170.169 62.046 170.298 62.541 170.556 62.985C170.82 63.423 171.165 63.774 171.591 64.038C172.023 64.296 172.494 64.425 173.004 64.425ZM183.668 66.234C182.84 66.234 182.084 66.021 181.4 65.595C180.722 65.169 180.179 64.599 179.771 63.885C179.369 63.165 179.168 62.37 179.168 61.5C179.168 60.84 179.285 60.225 179.519 59.655C179.753 59.079 180.074 58.575 180.482 58.143C180.896 57.705 181.376 57.363 181.922 57.117C182.468 56.871 183.05 56.748 183.668 56.748C184.496 56.748 185.249 56.961 185.927 57.387C186.611 57.813 187.154 58.386 187.556 59.106C187.964 59.826 188.168 60.624 188.168 61.5C188.168 62.154 188.051 62.766 187.817 63.336C187.583 63.906 187.259 64.41 186.845 64.848C186.437 65.28 185.96 65.619 185.414 65.865C184.874 66.111 184.292 66.234 183.668 66.234ZM183.668 64.362C184.166 64.362 184.613 64.23 185.009 63.966C185.405 63.702 185.717 63.354 185.945 62.922C186.179 62.484 186.296 62.01 186.296 61.5C186.296 60.978 186.176 60.498 185.936 60.06C185.702 59.622 185.387 59.274 184.991 59.016C184.595 58.752 184.154 58.62 183.668 58.62C183.176 58.62 182.729 58.752 182.327 59.016C181.931 59.28 181.616 59.631 181.382 60.069C181.154 60.507 181.04 60.984 181.04 61.5C181.04 62.034 181.16 62.517 181.4 62.949C181.64 63.381 181.958 63.726 182.354 63.984C182.756 64.236 183.194 64.362 183.668 64.362ZM197.722 60.357V66H195.85V60.816C195.85 60.414 195.751 60.048 195.553 59.718C195.361 59.388 195.1 59.127 194.77 58.935C194.446 58.737 194.08 58.638 193.672 58.638C193.276 58.638 192.913 58.737 192.583 58.935C192.253 59.127 191.989 59.388 191.791 59.718C191.593 60.048 191.494 60.414 191.494 60.816V66H189.622V57H191.494V57.954C191.806 57.582 192.19 57.288 192.646 57.072C193.102 56.856 193.594 56.748 194.122 56.748C194.788 56.748 195.394 56.91 195.94 57.234C196.486 57.558 196.918 57.993 197.236 58.539C197.56 59.085 197.722 59.691 197.722 60.357ZM203.303 66.234C202.475 66.234 201.719 66.021 201.035 65.595C200.357 65.169 199.814 64.599 199.406 63.885C199.004 63.165 198.803 62.37 198.803 61.5C198.803 60.84 198.92 60.225 199.154 59.655C199.388 59.079 199.709 58.575 200.117 58.143C200.531 57.705 201.011 57.363 201.557 57.117C202.103 56.871 202.685 56.748 203.303 56.748C203.993 56.748 204.626 56.892 205.202 57.18C205.778 57.462 206.27 57.855 206.678 58.359C207.086 58.857 207.386 59.433 207.578 60.087C207.77 60.735 207.827 61.425 207.749 62.157H200.81C200.888 62.571 201.038 62.946 201.26 63.282C201.488 63.612 201.776 63.873 202.124 64.065C202.478 64.257 202.871 64.356 203.303 64.362C203.759 64.362 204.173 64.248 204.545 64.02C204.923 63.792 205.232 63.477 205.472 63.075L207.371 63.516C207.011 64.314 206.468 64.968 205.742 65.478C205.016 65.982 204.203 66.234 203.303 66.234ZM200.747 60.726H205.859C205.799 60.294 205.646 59.904 205.4 59.556C205.16 59.202 204.857 58.923 204.491 58.719C204.131 58.509 203.735 58.404 203.303 58.404C202.877 58.404 202.481 58.506 202.115 58.71C201.755 58.914 201.455 59.193 201.215 59.547C200.981 59.895 200.825 60.288 200.747 60.726ZM211.975 66.171C211.501 66.141 211.039 66.045 210.589 65.883C210.139 65.721 209.743 65.502 209.401 65.226C209.065 64.944 208.813 64.614 208.645 64.236L210.238 63.552C210.316 63.714 210.451 63.873 210.643 64.029C210.841 64.185 211.072 64.314 211.336 64.416C211.6 64.512 211.876 64.56 212.164 64.56C212.446 64.56 212.707 64.521 212.947 64.443C213.193 64.359 213.394 64.233 213.55 64.065C213.706 63.897 213.784 63.696 213.784 63.462C213.784 63.198 213.694 62.994 213.514 62.85C213.34 62.7 213.121 62.586 212.857 62.508C212.593 62.43 212.329 62.355 212.065 62.283C211.477 62.151 210.937 61.971 210.445 61.743C209.959 61.509 209.572 61.212 209.284 60.852C208.996 60.486 208.852 60.039 208.852 59.511C208.852 58.935 209.008 58.437 209.32 58.017C209.632 57.591 210.04 57.264 210.544 57.036C211.054 56.808 211.597 56.694 212.173 56.694C212.893 56.694 213.553 56.847 214.153 57.153C214.753 57.459 215.212 57.879 215.53 58.413L214.045 59.295C213.955 59.115 213.82 58.953 213.64 58.809C213.46 58.665 213.256 58.551 213.028 58.467C212.8 58.377 212.563 58.326 212.317 58.314C212.011 58.302 211.726 58.338 211.462 58.422C211.204 58.5 210.997 58.626 210.841 58.8C210.685 58.974 210.607 59.196 210.607 59.466C210.607 59.73 210.7 59.928 210.886 60.06C211.072 60.186 211.306 60.288 211.588 60.366C211.876 60.444 212.17 60.531 212.47 60.627C213.004 60.795 213.505 61.002 213.973 61.248C214.441 61.488 214.819 61.785 215.107 62.139C215.395 62.493 215.533 62.925 215.521 63.435C215.521 63.999 215.35 64.494 215.008 64.92C214.672 65.346 214.234 65.67 213.694 65.892C213.154 66.114 212.581 66.207 211.975 66.171ZM216.904 57H218.776V66H216.904V57ZM217.858 55.695C217.57 55.695 217.33 55.602 217.138 55.416C216.946 55.23 216.85 54.996 216.85 54.714C216.85 54.438 216.946 54.207 217.138 54.021C217.33 53.829 217.567 53.733 217.849 53.733C218.125 53.733 218.359 53.829 218.551 54.021C218.743 54.207 218.839 54.438 218.839 54.714C218.839 54.996 218.743 55.23 218.551 55.416C218.365 55.602 218.134 55.695 217.858 55.695ZM227.773 57H229.645V66H227.764L227.692 64.695C227.428 65.157 227.071 65.529 226.621 65.811C226.171 66.093 225.64 66.234 225.028 66.234C224.368 66.234 223.747 66.111 223.165 65.865C222.583 65.613 222.07 65.265 221.626 64.821C221.188 64.377 220.846 63.867 220.6 63.291C220.354 62.709 220.231 62.085 220.231 61.419C220.231 60.777 220.351 60.174 220.591 59.61C220.831 59.04 221.164 58.542 221.59 58.116C222.016 57.69 222.508 57.357 223.066 57.117C223.63 56.871 224.233 56.748 224.875 56.748C225.529 56.748 226.105 56.898 226.603 57.198C227.107 57.492 227.524 57.87 227.854 58.332L227.773 57ZM224.983 64.425C225.511 64.425 225.973 64.296 226.369 64.038C226.765 63.774 227.071 63.42 227.287 62.976C227.509 62.532 227.62 62.04 227.62 61.5C227.62 60.954 227.509 60.459 227.287 60.015C227.065 59.571 226.756 59.22 226.36 58.962C225.97 58.698 225.511 58.566 224.983 58.566C224.461 58.566 223.984 58.698 223.552 58.962C223.12 59.226 222.778 59.58 222.526 60.024C222.274 60.468 222.148 60.96 222.148 61.5C222.148 62.046 222.277 62.541 222.535 62.985C222.799 63.423 223.144 63.774 223.57 64.038C224.002 64.296 224.473 64.425 224.983 64.425Z" fill="#262626"/>
</g>
</svg>
