<svg width="339" height="76" viewBox="0 0 339 76" fill="none" xmlns="http://www.w3.org/2000/svg">
<path d="M13.5735 26.312C12.4375 26.312 11.3695 26.088 10.3695 25.64C9.3695 25.184 8.4895 24.556 7.7295 23.756C6.9695 22.956 6.3735 22.032 5.9415 20.984C5.5095 19.928 5.2935 18.8 5.2935 17.6C5.2935 16.4 5.5095 15.276 5.9415 14.228C6.3735 13.172 6.9695 12.244 7.7295 11.444C8.4895 10.644 9.3695 10.02 10.3695 9.572C11.3695 9.116 12.4375 8.888 13.5735 8.888C14.7175 8.888 15.7895 9.116 16.7895 9.572C17.7895 10.02 18.6695 10.644 19.4295 11.444C20.1895 12.244 20.7815 13.172 21.2055 14.228C21.6375 15.276 21.8535 16.4 21.8535 17.6C21.8535 18.8 21.6375 19.928 21.2055 20.984C20.7815 22.032 20.1895 22.956 19.4295 23.756C18.6695 24.556 17.7895 25.184 16.7895 25.64C15.7895 26.088 14.7175 26.312 13.5735 26.312ZM13.5735 23.384C14.3095 23.384 15.0015 23.232 15.6495 22.928C16.2975 22.624 16.8655 22.208 17.3535 21.68C17.8495 21.144 18.2335 20.528 18.5055 19.832C18.7855 19.136 18.9255 18.392 18.9255 17.6C18.9255 16.808 18.7855 16.064 18.5055 15.368C18.2255 14.664 17.8375 14.048 17.3415 13.52C16.8535 12.992 16.2855 12.576 15.6375 12.272C14.9975 11.968 14.3095 11.816 13.5735 11.816C12.8375 11.816 12.1455 11.968 11.4975 12.272C10.8495 12.576 10.2775 12.996 9.7815 13.532C9.2935 14.06 8.9095 14.672 8.6295 15.368C8.3575 16.064 8.2215 16.808 8.2215 17.6C8.2215 18.4 8.3615 19.148 8.6415 19.844C8.9215 20.54 9.3055 21.156 9.7935 21.692C10.2895 22.22 10.8575 22.636 11.4975 22.94C12.1455 23.236 12.8375 23.384 13.5735 23.384ZM29.1472 26.312C28.0432 26.312 27.0352 26.028 26.1232 25.46C25.2192 24.892 24.4952 24.128 23.9512 23.168C23.4152 22.208 23.1472 21.148 23.1472 19.988C23.1472 19.116 23.3032 18.3 23.6152 17.54C23.9272 16.772 24.3552 16.1 24.8992 15.524C25.4512 14.94 26.0912 14.484 26.8192 14.156C27.5472 13.828 28.3232 13.664 29.1472 13.664C30.0832 13.664 30.9392 13.864 31.7152 14.264C32.4992 14.656 33.1632 15.196 33.7072 15.884C34.2512 16.572 34.6472 17.356 34.8952 18.236C35.1432 19.116 35.1992 20.036 35.0632 20.996H26.2912C26.4032 21.444 26.5872 21.848 26.8432 22.208C27.0992 22.56 27.4232 22.844 27.8152 23.06C28.2072 23.268 28.6512 23.376 29.1472 23.384C29.6592 23.392 30.1232 23.272 30.5392 23.024C30.9632 22.768 31.3152 22.424 31.5952 21.992L34.5832 22.688C34.0952 23.752 33.3672 24.624 32.3992 25.304C31.4312 25.976 30.3472 26.312 29.1472 26.312ZM26.1952 18.8H32.0992C32.0112 18.32 31.8232 17.888 31.5352 17.504C31.2552 17.112 30.9072 16.8 30.4912 16.568C30.0752 16.336 29.6272 16.22 29.1472 16.22C28.6672 16.22 28.2232 16.336 27.8152 16.568C27.4072 16.792 27.0592 17.1 26.7712 17.492C26.4912 17.876 26.2992 18.312 26.1952 18.8ZM40.6494 26.216C40.0254 26.176 39.4214 26.052 38.8374 25.844C38.2614 25.628 37.7494 25.336 37.3014 24.968C36.8534 24.6 36.5094 24.16 36.2694 23.648L38.7414 22.592C38.8374 22.752 38.9934 22.924 39.2094 23.108C39.4254 23.284 39.6814 23.432 39.9774 23.552C40.2814 23.672 40.6134 23.732 40.9734 23.732C41.2774 23.732 41.5654 23.692 41.8374 23.612C42.1174 23.524 42.3414 23.392 42.5094 23.216C42.6854 23.04 42.7734 22.812 42.7734 22.532C42.7734 22.236 42.6694 22.008 42.4614 21.848C42.2614 21.68 42.0054 21.556 41.6934 21.476C41.3894 21.388 41.0934 21.308 40.8054 21.236C40.0454 21.084 39.3374 20.848 38.6814 20.528C38.0334 20.208 37.5094 19.796 37.1094 19.292C36.7174 18.78 36.5214 18.164 36.5214 17.444C36.5214 16.652 36.7294 15.968 37.1454 15.392C37.5694 14.816 38.1174 14.372 38.7894 14.06C39.4694 13.748 40.2014 13.592 40.9854 13.592C41.9374 13.592 42.8094 13.792 43.6014 14.192C44.4014 14.584 45.0334 15.14 45.4974 15.86L43.1814 17.228C43.0694 17.036 42.9134 16.86 42.7134 16.7C42.5134 16.532 42.2854 16.396 42.0294 16.292C41.7734 16.18 41.5054 16.116 41.2254 16.1C40.8654 16.084 40.5374 16.116 40.2414 16.196C39.9454 16.276 39.7054 16.412 39.5214 16.604C39.3454 16.796 39.2574 17.052 39.2574 17.372C39.2574 17.676 39.3774 17.904 39.6174 18.056C39.8574 18.2 40.1454 18.312 40.4814 18.392C40.8254 18.472 41.1534 18.56 41.4654 18.656C42.1694 18.888 42.8294 19.172 43.4454 19.508C44.0694 19.844 44.5694 20.256 44.9454 20.744C45.3214 21.232 45.5014 21.816 45.4854 22.496C45.4854 23.272 45.2534 23.952 44.7894 24.536C44.3254 25.112 43.7254 25.552 42.9894 25.856C42.2614 26.16 41.4814 26.28 40.6494 26.216ZM54.7916 22.388L57.4316 23.816C56.8796 24.568 56.1876 25.172 55.3556 25.628C54.5236 26.084 53.6156 26.312 52.6316 26.312C51.5276 26.312 50.5196 26.028 49.6076 25.46C48.7036 24.892 47.9796 24.132 47.4356 23.18C46.8996 22.22 46.6316 21.16 46.6316 20C46.6316 19.12 46.7876 18.3 47.0996 17.54C47.4116 16.772 47.8396 16.1 48.3836 15.524C48.9356 14.94 49.5756 14.484 50.3036 14.156C51.0316 13.828 51.8076 13.664 52.6316 13.664C53.6156 13.664 54.5236 13.892 55.3556 14.348C56.1876 14.804 56.8796 15.416 57.4316 16.184L54.7916 17.6C54.5116 17.28 54.1796 17.032 53.7956 16.856C53.4196 16.68 53.0316 16.592 52.6316 16.592C52.0556 16.592 51.5356 16.752 51.0716 17.072C50.6076 17.384 50.2396 17.8 49.9676 18.32C49.6956 18.832 49.5596 19.392 49.5596 20C49.5596 20.6 49.6956 21.16 49.9676 21.68C50.2396 22.192 50.6076 22.604 51.0716 22.916C51.5356 23.228 52.0556 23.384 52.6316 23.384C53.0476 23.384 53.4436 23.296 53.8196 23.12C54.1956 22.936 54.5196 22.692 54.7916 22.388ZM70.203 18.416V26H67.275V19.184C67.275 18.712 67.159 18.284 66.927 17.9C66.695 17.508 66.383 17.2 65.991 16.976C65.607 16.744 65.179 16.628 64.707 16.628C64.235 16.628 63.803 16.744 63.411 16.976C63.027 17.2 62.719 17.508 62.487 17.9C62.263 18.284 62.151 18.712 62.151 19.184V26H59.223L59.211 8H62.139L62.151 15.068C62.559 14.636 63.047 14.296 63.615 14.048C64.183 13.792 64.795 13.664 65.451 13.664C66.323 13.664 67.119 13.88 67.839 14.312C68.559 14.736 69.131 15.308 69.555 16.028C69.987 16.74 70.203 17.536 70.203 18.416ZM72.5938 14H75.5218V26H72.5938V14ZM74.0818 12.452C73.6498 12.452 73.2858 12.312 72.9898 12.032C72.6938 11.744 72.5458 11.384 72.5458 10.952C72.5458 10.528 72.6938 10.172 72.9898 9.884C73.2858 9.596 73.6458 9.452 74.0698 9.452C74.4938 9.452 74.8498 9.596 75.1378 9.884C75.4338 10.172 75.5818 10.528 75.5818 10.952C75.5818 11.384 75.4378 11.744 75.1498 12.032C74.8618 12.312 74.5058 12.452 74.0818 12.452ZM89.3046 18.416V26H86.3766V19.184C86.3766 18.712 86.2606 18.284 86.0286 17.9C85.7966 17.508 85.4846 17.2 85.0926 16.976C84.7086 16.744 84.2806 16.628 83.8086 16.628C83.3366 16.628 82.9046 16.744 82.5126 16.976C82.1286 17.2 81.8206 17.508 81.5886 17.9C81.3646 18.284 81.2526 18.712 81.2526 19.184V26H78.3246L78.3126 14H81.2406L81.2526 15.068C81.6606 14.636 82.1486 14.296 82.7166 14.048C83.2846 13.792 83.8966 13.664 84.5526 13.664C85.4246 13.664 86.2206 13.88 86.9406 14.312C87.6606 14.736 88.2326 15.308 88.6566 16.028C89.0886 16.74 89.3046 17.536 89.3046 18.416ZM96.741 26.312C95.637 26.312 94.629 26.028 93.717 25.46C92.813 24.892 92.089 24.128 91.545 23.168C91.009 22.208 90.741 21.148 90.741 19.988C90.741 19.116 90.897 18.3 91.209 17.54C91.521 16.772 91.949 16.1 92.493 15.524C93.045 14.94 93.685 14.484 94.413 14.156C95.141 13.828 95.917 13.664 96.741 13.664C97.677 13.664 98.533 13.864 99.309 14.264C100.093 14.656 100.757 15.196 101.301 15.884C101.845 16.572 102.241 17.356 102.489 18.236C102.737 19.116 102.793 20.036 102.657 20.996H93.885C93.997 21.444 94.181 21.848 94.437 22.208C94.693 22.56 95.017 22.844 95.409 23.06C95.801 23.268 96.245 23.376 96.741 23.384C97.253 23.392 97.717 23.272 98.133 23.024C98.557 22.768 98.909 22.424 99.189 21.992L102.177 22.688C101.689 23.752 100.961 24.624 99.993 25.304C99.025 25.976 97.941 26.312 96.741 26.312ZM93.789 18.8H99.693C99.605 18.32 99.417 17.888 99.129 17.504C98.849 17.112 98.501 16.8 98.085 16.568C97.669 16.336 97.221 16.22 96.741 16.22C96.261 16.22 95.817 16.336 95.409 16.568C95.001 16.792 94.653 17.1 94.365 17.492C94.085 17.876 93.893 18.312 93.789 18.8ZM115.601 18.416V26H112.673V19.184C112.673 18.712 112.557 18.284 112.325 17.9C112.093 17.508 111.781 17.2 111.389 16.976C111.005 16.744 110.577 16.628 110.105 16.628C109.633 16.628 109.201 16.744 108.809 16.976C108.425 17.2 108.117 17.508 107.885 17.9C107.661 18.284 107.549 18.712 107.549 19.184V26H104.621L104.609 14H107.537L107.549 15.068C107.957 14.636 108.445 14.296 109.013 14.048C109.581 13.792 110.193 13.664 110.849 13.664C111.721 13.664 112.517 13.88 113.237 14.312C113.957 14.736 114.529 15.308 114.953 16.028C115.385 16.74 115.601 17.536 115.601 18.416ZM123.758 26V9.2H126.686V23.072H133.682V26H123.758ZM144.384 14H147.312V26H144.384L144.252 24.512C143.924 25.048 143.488 25.484 142.944 25.82C142.408 26.148 141.772 26.312 141.036 26.312C140.148 26.312 139.316 26.144 138.54 25.808C137.764 25.472 137.08 25.008 136.488 24.416C135.904 23.824 135.444 23.14 135.108 22.364C134.78 21.588 134.616 20.756 134.616 19.868C134.616 19.012 134.772 18.208 135.084 17.456C135.404 16.704 135.848 16.044 136.416 15.476C136.984 14.908 137.64 14.464 138.384 14.144C139.128 13.824 139.928 13.664 140.784 13.664C141.576 13.664 142.284 13.84 142.908 14.192C143.54 14.544 144.076 14.992 144.516 15.536L144.384 14ZM140.964 23.492C141.588 23.492 142.14 23.336 142.62 23.024C143.1 22.712 143.476 22.292 143.748 21.764C144.02 21.228 144.156 20.64 144.156 20C144.156 19.352 144.02 18.764 143.748 18.236C143.476 17.7 143.096 17.276 142.608 16.964C142.128 16.652 141.58 16.496 140.964 16.496C140.348 16.496 139.784 16.656 139.272 16.976C138.768 17.288 138.364 17.708 138.06 18.236C137.764 18.764 137.616 19.352 137.616 20C137.616 20.648 137.768 21.236 138.072 21.764C138.376 22.292 138.78 22.712 139.284 23.024C139.796 23.336 140.356 23.492 140.964 23.492ZM160.489 26H157.117L154.381 21.284L152.701 23.288V26H149.773V8H152.701V18.74L156.673 14H160.501L156.385 18.908L160.489 26ZM166.889 26.312C165.785 26.312 164.777 26.028 163.865 25.46C162.961 24.892 162.237 24.128 161.693 23.168C161.157 22.208 160.889 21.148 160.889 19.988C160.889 19.116 161.045 18.3 161.357 17.54C161.669 16.772 162.097 16.1 162.641 15.524C163.193 14.94 163.833 14.484 164.561 14.156C165.289 13.828 166.065 13.664 166.889 13.664C167.825 13.664 168.681 13.864 169.457 14.264C170.241 14.656 170.905 15.196 171.449 15.884C171.993 16.572 172.389 17.356 172.637 18.236C172.885 19.116 172.941 20.036 172.805 20.996H164.033C164.145 21.444 164.329 21.848 164.585 22.208C164.841 22.56 165.165 22.844 165.557 23.06C165.949 23.268 166.393 23.376 166.889 23.384C167.401 23.392 167.865 23.272 168.281 23.024C168.705 22.768 169.057 22.424 169.337 21.992L172.325 22.688C171.837 23.752 171.109 24.624 170.141 25.304C169.173 25.976 168.089 26.312 166.889 26.312ZM163.937 18.8H169.841C169.753 18.32 169.565 17.888 169.277 17.504C168.997 17.112 168.649 16.8 168.233 16.568C167.817 16.336 167.369 16.22 166.889 16.22C166.409 16.22 165.965 16.336 165.557 16.568C165.149 16.792 164.801 17.1 164.513 17.492C164.233 17.876 164.041 18.312 163.937 18.8Z" fill="#262626"/>
<g opacity="0.7">
<path fill-rule="evenodd" clip-rule="evenodd" d="M7.8335 58.3178C7.8335 53.7179 11.6774 50 16.3269 50C20.9896 50 24.8335 53.7179 24.8335 58.3178C24.8335 60.6357 23.9905 62.7876 22.603 64.6116C21.0723 66.6235 19.1857 68.3765 17.062 69.7524C16.576 70.0704 16.1374 70.0944 15.6039 69.7524C13.4682 68.3765 11.5816 66.6235 10.064 64.6116C8.67548 62.7876 7.8335 60.6357 7.8335 58.3178ZM13.5277 58.5768C13.5277 60.1177 14.7852 61.3297 16.3269 61.3297C17.8697 61.3297 19.1393 60.1177 19.1393 58.5768C19.1393 57.0478 17.8697 55.7768 16.3269 55.7768C14.7852 55.7768 13.5277 57.0478 13.5277 58.5768Z" fill="#25A59E"/>
<path d="M37.4135 66V53.4H41.7515C42.4295 53.4 43.0415 53.568 43.5875 53.904C44.1395 54.24 44.5775 54.693 44.9015 55.263C45.2315 55.833 45.3965 56.463 45.3965 57.153C45.3965 57.855 45.2285 58.491 44.8925 59.061C44.5625 59.625 44.1215 60.075 43.5695 60.411C43.0175 60.747 42.4115 60.915 41.7515 60.915H39.2855V66H37.4135ZM39.2855 59.043H41.5625C41.9225 59.043 42.2495 58.953 42.5435 58.773C42.8435 58.593 43.0805 58.353 43.2545 58.053C43.4345 57.753 43.5245 57.414 43.5245 57.036C43.5245 56.658 43.4345 56.319 43.2545 56.019C43.0805 55.713 42.8435 55.473 42.5435 55.299C42.2495 55.119 41.9225 55.029 41.5625 55.029H39.2855V59.043ZM53.4331 57H55.3051V66H53.4241L53.3521 64.695C53.0881 65.157 52.7311 65.529 52.2811 65.811C51.8311 66.093 51.3001 66.234 50.6881 66.234C50.0281 66.234 49.4071 66.111 48.8251 65.865C48.2431 65.613 47.7301 65.265 47.2861 64.821C46.8481 64.377 46.5061 63.867 46.2601 63.291C46.0141 62.709 45.8911 62.085 45.8911 61.419C45.8911 60.777 46.0111 60.174 46.2511 59.61C46.4911 59.04 46.8241 58.542 47.2501 58.116C47.6761 57.69 48.1681 57.357 48.7261 57.117C49.2901 56.871 49.8931 56.748 50.5351 56.748C51.1891 56.748 51.7651 56.898 52.2631 57.198C52.7671 57.492 53.1841 57.87 53.5141 58.332L53.4331 57ZM50.6431 64.425C51.1711 64.425 51.6331 64.296 52.0291 64.038C52.4251 63.774 52.7311 63.42 52.9471 62.976C53.1691 62.532 53.2801 62.04 53.2801 61.5C53.2801 60.954 53.1691 60.459 52.9471 60.015C52.7251 59.571 52.4161 59.22 52.0201 58.962C51.6301 58.698 51.1711 58.566 50.6431 58.566C50.1211 58.566 49.6441 58.698 49.2121 58.962C48.7801 59.226 48.4381 59.58 48.1861 60.024C47.9341 60.468 47.8081 60.96 47.8081 61.5C47.8081 62.046 47.9371 62.541 48.1951 62.985C48.4591 63.423 48.8041 63.774 49.2301 64.038C49.6621 64.296 50.1331 64.425 50.6431 64.425ZM59.801 66.171C59.327 66.141 58.865 66.045 58.415 65.883C57.965 65.721 57.569 65.502 57.227 65.226C56.891 64.944 56.639 64.614 56.471 64.236L58.064 63.552C58.142 63.714 58.277 63.873 58.469 64.029C58.667 64.185 58.898 64.314 59.162 64.416C59.426 64.512 59.702 64.56 59.99 64.56C60.272 64.56 60.533 64.521 60.773 64.443C61.019 64.359 61.22 64.233 61.376 64.065C61.532 63.897 61.61 63.696 61.61 63.462C61.61 63.198 61.52 62.994 61.34 62.85C61.166 62.7 60.947 62.586 60.683 62.508C60.419 62.43 60.155 62.355 59.891 62.283C59.303 62.151 58.763 61.971 58.271 61.743C57.785 61.509 57.398 61.212 57.11 60.852C56.822 60.486 56.678 60.039 56.678 59.511C56.678 58.935 56.834 58.437 57.146 58.017C57.458 57.591 57.866 57.264 58.37 57.036C58.88 56.808 59.423 56.694 59.999 56.694C60.719 56.694 61.379 56.847 61.979 57.153C62.579 57.459 63.038 57.879 63.356 58.413L61.871 59.295C61.781 59.115 61.646 58.953 61.466 58.809C61.286 58.665 61.082 58.551 60.854 58.467C60.626 58.377 60.389 58.326 60.143 58.314C59.837 58.302 59.552 58.338 59.288 58.422C59.03 58.5 58.823 58.626 58.667 58.8C58.511 58.974 58.433 59.196 58.433 59.466C58.433 59.73 58.526 59.928 58.712 60.06C58.898 60.186 59.132 60.288 59.414 60.366C59.702 60.444 59.996 60.531 60.296 60.627C60.83 60.795 61.331 61.002 61.799 61.248C62.267 61.488 62.645 61.785 62.933 62.139C63.221 62.493 63.359 62.925 63.347 63.435C63.347 63.999 63.176 64.494 62.834 64.92C62.498 65.346 62.06 65.67 61.52 65.892C60.98 66.114 60.407 66.207 59.801 66.171ZM64.5281 62.625V57H66.4001V62.166C66.4001 62.568 66.4991 62.934 66.6971 63.264C66.8951 63.594 67.1591 63.858 67.4891 64.056C67.8191 64.248 68.1821 64.344 68.5781 64.344C68.9801 64.344 69.3431 64.248 69.6671 64.056C69.9971 63.858 70.2581 63.594 70.4501 63.264C70.6481 62.934 70.7471 62.568 70.7471 62.166V57H72.6191L72.6281 66H70.7561L70.7471 65.028C70.4411 65.4 70.0601 65.694 69.6041 65.91C69.1481 66.126 68.6591 66.234 68.1371 66.234C67.4711 66.234 66.8651 66.072 66.3191 65.748C65.7731 65.424 65.3381 64.989 65.0141 64.443C64.6901 63.897 64.5281 63.291 64.5281 62.625ZM74.433 66V57H76.305V57.954C76.617 57.582 77.001 57.288 77.457 57.072C77.913 56.856 78.405 56.748 78.933 56.748C79.269 56.748 79.602 56.793 79.932 56.883L79.185 58.773C78.951 58.683 78.717 58.638 78.483 58.638C78.087 58.638 77.724 58.737 77.394 58.935C77.064 59.127 76.8 59.388 76.602 59.718C76.404 60.048 76.305 60.414 76.305 60.816V66H74.433ZM80.6648 62.625V57H82.5368V62.166C82.5368 62.568 82.6358 62.934 82.8338 63.264C83.0318 63.594 83.2958 63.858 83.6258 64.056C83.9558 64.248 84.3188 64.344 84.7148 64.344C85.1168 64.344 85.4798 64.248 85.8038 64.056C86.1338 63.858 86.3948 63.594 86.5868 63.264C86.7848 62.934 86.8838 62.568 86.8838 62.166V57H88.7558L88.7648 66H86.8928L86.8838 65.028C86.5778 65.4 86.1968 65.694 85.7408 65.91C85.2848 66.126 84.7958 66.234 84.2738 66.234C83.6078 66.234 83.0018 66.072 82.4558 65.748C81.9098 65.424 81.4748 64.989 81.1508 64.443C80.8268 63.897 80.6648 63.291 80.6648 62.625ZM97.4487 57H99.3207V66H97.4397L97.3677 64.695C97.1037 65.157 96.7467 65.529 96.2967 65.811C95.8467 66.093 95.3157 66.234 94.7037 66.234C94.0437 66.234 93.4227 66.111 92.8407 65.865C92.2587 65.613 91.7457 65.265 91.3017 64.821C90.8637 64.377 90.5217 63.867 90.2757 63.291C90.0297 62.709 89.9067 62.085 89.9067 61.419C89.9067 60.777 90.0267 60.174 90.2667 59.61C90.5067 59.04 90.8397 58.542 91.2657 58.116C91.6917 57.69 92.1837 57.357 92.7417 57.117C93.3057 56.871 93.9087 56.748 94.5507 56.748C95.2047 56.748 95.7807 56.898 96.2787 57.198C96.7827 57.492 97.1997 57.87 97.5297 58.332L97.4487 57ZM94.6587 64.425C95.1867 64.425 95.6487 64.296 96.0447 64.038C96.4407 63.774 96.7467 63.42 96.9627 62.976C97.1847 62.532 97.2957 62.04 97.2957 61.5C97.2957 60.954 97.1847 60.459 96.9627 60.015C96.7407 59.571 96.4317 59.22 96.0357 58.962C95.6457 58.698 95.1867 58.566 94.6587 58.566C94.1367 58.566 93.6597 58.698 93.2277 58.962C92.7957 59.226 92.4537 59.58 92.2017 60.024C91.9497 60.468 91.8237 60.96 91.8237 61.5C91.8237 62.046 91.9527 62.541 92.2107 62.985C92.4747 63.423 92.8197 63.774 93.2457 64.038C93.6777 64.296 94.1487 64.425 94.6587 64.425ZM109.217 60.357V66H107.345V60.816C107.345 60.414 107.246 60.048 107.048 59.718C106.856 59.388 106.595 59.127 106.265 58.935C105.941 58.737 105.575 58.638 105.167 58.638C104.771 58.638 104.408 58.737 104.078 58.935C103.748 59.127 103.484 59.388 103.286 59.718C103.088 60.048 102.989 60.414 102.989 60.816V66H101.117V57H102.989V57.954C103.301 57.582 103.685 57.288 104.141 57.072C104.597 56.856 105.089 56.748 105.617 56.748C106.283 56.748 106.889 56.91 107.435 57.234C107.981 57.558 108.413 57.993 108.731 58.539C109.055 59.085 109.217 59.691 109.217 60.357ZM110.653 67.008L111.211 63.966H113.083L111.895 67.008H110.653ZM119.844 66V53.4H121.716V66H119.844ZM132.244 60.357V66H130.372V60.816C130.372 60.414 130.273 60.048 130.075 59.718C129.883 59.388 129.622 59.127 129.292 58.935C128.968 58.737 128.602 58.638 128.194 58.638C127.798 58.638 127.435 58.737 127.105 58.935C126.775 59.127 126.511 59.388 126.313 59.718C126.115 60.048 126.016 60.414 126.016 60.816V66H124.144V57H126.016V57.954C126.328 57.582 126.712 57.288 127.168 57.072C127.624 56.856 128.116 56.748 128.644 56.748C129.31 56.748 129.916 56.91 130.462 57.234C131.008 57.558 131.44 57.993 131.758 58.539C132.082 59.085 132.244 59.691 132.244 60.357ZM140.876 52.5H142.748V66H140.876V64.677C140.582 65.145 140.198 65.523 139.724 65.811C139.25 66.093 138.695 66.234 138.059 66.234C137.405 66.234 136.793 66.111 136.223 65.865C135.653 65.619 135.149 65.28 134.711 64.848C134.279 64.41 133.94 63.906 133.694 63.336C133.448 62.766 133.325 62.154 133.325 61.5C133.325 60.846 133.448 60.234 133.694 59.664C133.94 59.088 134.279 58.584 134.711 58.152C135.149 57.714 135.653 57.372 136.223 57.126C136.793 56.88 137.405 56.757 138.059 56.757C138.695 56.757 139.25 56.901 139.724 57.189C140.198 57.471 140.582 57.843 140.876 58.305V52.5ZM138.077 64.425C138.605 64.425 139.067 64.296 139.463 64.038C139.859 63.774 140.165 63.42 140.381 62.976C140.603 62.532 140.714 62.04 140.714 61.5C140.714 60.954 140.603 60.459 140.381 60.015C140.159 59.571 139.85 59.22 139.454 58.962C139.064 58.698 138.605 58.566 138.077 58.566C137.555 58.566 137.078 58.698 136.646 58.962C136.22 59.226 135.878 59.58 135.62 60.024C135.368 60.468 135.242 60.96 135.242 61.5C135.242 62.046 135.371 62.541 135.629 62.985C135.893 63.423 136.238 63.774 136.664 64.038C137.096 64.296 137.567 64.425 138.077 64.425ZM148.741 66.234C147.913 66.234 147.157 66.021 146.473 65.595C145.795 65.169 145.252 64.599 144.844 63.885C144.442 63.165 144.241 62.37 144.241 61.5C144.241 60.84 144.358 60.225 144.592 59.655C144.826 59.079 145.147 58.575 145.555 58.143C145.969 57.705 146.449 57.363 146.995 57.117C147.541 56.871 148.123 56.748 148.741 56.748C149.569 56.748 150.322 56.961 151 57.387C151.684 57.813 152.227 58.386 152.629 59.106C153.037 59.826 153.241 60.624 153.241 61.5C153.241 62.154 153.124 62.766 152.89 63.336C152.656 63.906 152.332 64.41 151.918 64.848C151.51 65.28 151.033 65.619 150.487 65.865C149.947 66.111 149.365 66.234 148.741 66.234ZM148.741 64.362C149.239 64.362 149.686 64.23 150.082 63.966C150.478 63.702 150.79 63.354 151.018 62.922C151.252 62.484 151.369 62.01 151.369 61.5C151.369 60.978 151.249 60.498 151.009 60.06C150.775 59.622 150.46 59.274 150.064 59.016C149.668 58.752 149.227 58.62 148.741 58.62C148.249 58.62 147.802 58.752 147.4 59.016C147.004 59.28 146.689 59.631 146.455 60.069C146.227 60.507 146.113 60.984 146.113 61.5C146.113 62.034 146.233 62.517 146.473 62.949C146.713 63.381 147.031 63.726 147.427 63.984C147.829 64.236 148.267 64.362 148.741 64.362ZM162.795 60.357V66H160.923V60.816C160.923 60.414 160.824 60.048 160.626 59.718C160.434 59.388 160.173 59.127 159.843 58.935C159.519 58.737 159.153 58.638 158.745 58.638C158.349 58.638 157.986 58.737 157.656 58.935C157.326 59.127 157.062 59.388 156.864 59.718C156.666 60.048 156.567 60.414 156.567 60.816V66H154.695V57H156.567V57.954C156.879 57.582 157.263 57.288 157.719 57.072C158.175 56.856 158.667 56.748 159.195 56.748C159.861 56.748 160.467 56.91 161.013 57.234C161.559 57.558 161.991 57.993 162.309 58.539C162.633 59.085 162.795 59.691 162.795 60.357ZM168.375 66.234C167.547 66.234 166.791 66.021 166.107 65.595C165.429 65.169 164.886 64.599 164.478 63.885C164.076 63.165 163.875 62.37 163.875 61.5C163.875 60.84 163.992 60.225 164.226 59.655C164.46 59.079 164.781 58.575 165.189 58.143C165.603 57.705 166.083 57.363 166.629 57.117C167.175 56.871 167.757 56.748 168.375 56.748C169.065 56.748 169.698 56.892 170.274 57.18C170.85 57.462 171.342 57.855 171.75 58.359C172.158 58.857 172.458 59.433 172.65 60.087C172.842 60.735 172.899 61.425 172.821 62.157H165.882C165.96 62.571 166.11 62.946 166.332 63.282C166.56 63.612 166.848 63.873 167.196 64.065C167.55 64.257 167.943 64.356 168.375 64.362C168.831 64.362 169.245 64.248 169.617 64.02C169.995 63.792 170.304 63.477 170.544 63.075L172.443 63.516C172.083 64.314 171.54 64.968 170.814 65.478C170.088 65.982 169.275 66.234 168.375 66.234ZM165.819 60.726H170.931C170.871 60.294 170.718 59.904 170.472 59.556C170.232 59.202 169.929 58.923 169.563 58.719C169.203 58.509 168.807 58.404 168.375 58.404C167.949 58.404 167.553 58.506 167.187 58.71C166.827 58.914 166.527 59.193 166.287 59.547C166.053 59.895 165.897 60.288 165.819 60.726ZM177.047 66.171C176.573 66.141 176.111 66.045 175.661 65.883C175.211 65.721 174.815 65.502 174.473 65.226C174.137 64.944 173.885 64.614 173.717 64.236L175.31 63.552C175.388 63.714 175.523 63.873 175.715 64.029C175.913 64.185 176.144 64.314 176.408 64.416C176.672 64.512 176.948 64.56 177.236 64.56C177.518 64.56 177.779 64.521 178.019 64.443C178.265 64.359 178.466 64.233 178.622 64.065C178.778 63.897 178.856 63.696 178.856 63.462C178.856 63.198 178.766 62.994 178.586 62.85C178.412 62.7 178.193 62.586 177.929 62.508C177.665 62.43 177.401 62.355 177.137 62.283C176.549 62.151 176.009 61.971 175.517 61.743C175.031 61.509 174.644 61.212 174.356 60.852C174.068 60.486 173.924 60.039 173.924 59.511C173.924 58.935 174.08 58.437 174.392 58.017C174.704 57.591 175.112 57.264 175.616 57.036C176.126 56.808 176.669 56.694 177.245 56.694C177.965 56.694 178.625 56.847 179.225 57.153C179.825 57.459 180.284 57.879 180.602 58.413L179.117 59.295C179.027 59.115 178.892 58.953 178.712 58.809C178.532 58.665 178.328 58.551 178.1 58.467C177.872 58.377 177.635 58.326 177.389 58.314C177.083 58.302 176.798 58.338 176.534 58.422C176.276 58.5 176.069 58.626 175.913 58.8C175.757 58.974 175.679 59.196 175.679 59.466C175.679 59.73 175.772 59.928 175.958 60.06C176.144 60.186 176.378 60.288 176.66 60.366C176.948 60.444 177.242 60.531 177.542 60.627C178.076 60.795 178.577 61.002 179.045 61.248C179.513 61.488 179.891 61.785 180.179 62.139C180.467 62.493 180.605 62.925 180.593 63.435C180.593 63.999 180.422 64.494 180.08 64.92C179.744 65.346 179.306 65.67 178.766 65.892C178.226 66.114 177.653 66.207 177.047 66.171ZM181.976 57H183.848V66H181.976V57ZM182.93 55.695C182.642 55.695 182.402 55.602 182.21 55.416C182.018 55.23 181.922 54.996 181.922 54.714C181.922 54.438 182.018 54.207 182.21 54.021C182.402 53.829 182.639 53.733 182.921 53.733C183.197 53.733 183.431 53.829 183.623 54.021C183.815 54.207 183.911 54.438 183.911 54.714C183.911 54.996 183.815 55.23 183.623 55.416C183.437 55.602 183.206 55.695 182.93 55.695ZM192.845 57H194.717V66H192.836L192.764 64.695C192.5 65.157 192.143 65.529 191.693 65.811C191.243 66.093 190.712 66.234 190.1 66.234C189.44 66.234 188.819 66.111 188.237 65.865C187.655 65.613 187.142 65.265 186.698 64.821C186.26 64.377 185.918 63.867 185.672 63.291C185.426 62.709 185.303 62.085 185.303 61.419C185.303 60.777 185.423 60.174 185.663 59.61C185.903 59.04 186.236 58.542 186.662 58.116C187.088 57.69 187.58 57.357 188.138 57.117C188.702 56.871 189.305 56.748 189.947 56.748C190.601 56.748 191.177 56.898 191.675 57.198C192.179 57.492 192.596 57.87 192.926 58.332L192.845 57ZM190.055 64.425C190.583 64.425 191.045 64.296 191.441 64.038C191.837 63.774 192.143 63.42 192.359 62.976C192.581 62.532 192.692 62.04 192.692 61.5C192.692 60.954 192.581 60.459 192.359 60.015C192.137 59.571 191.828 59.22 191.432 58.962C191.042 58.698 190.583 58.566 190.055 58.566C189.533 58.566 189.056 58.698 188.624 58.962C188.192 59.226 187.85 59.58 187.598 60.024C187.346 60.468 187.22 60.96 187.22 61.5C187.22 62.046 187.349 62.541 187.607 62.985C187.871 63.423 188.216 63.774 188.642 64.038C189.074 64.296 189.545 64.425 190.055 64.425Z" fill="#262626"/>
</g>
</svg>
