<svg width="340" height="76" viewBox="0 0 340 76" fill="none" xmlns="http://www.w3.org/2000/svg">
<path d="M15.9945 9.2H18.9225V26H15.9945V18.464H9.0345V26H6.1065V9.2H9.0345V15.536H15.9945V9.2ZM26.9021 26.312C25.7981 26.312 24.7901 26.028 23.8781 25.46C22.9741 24.892 22.2501 24.132 21.7061 23.18C21.1701 22.22 20.9021 21.16 20.9021 20C20.9021 19.12 21.0581 18.3 21.3701 17.54C21.6821 16.772 22.1101 16.1 22.6541 15.524C23.2061 14.94 23.8461 14.484 24.5741 14.156C25.3021 13.828 26.0781 13.664 26.9021 13.664C28.0061 13.664 29.0101 13.948 29.9141 14.516C30.8261 15.084 31.5501 15.848 32.0861 16.808C32.6301 17.768 32.9021 18.832 32.9021 20C32.9021 20.872 32.7461 21.688 32.4341 22.448C32.1221 23.208 31.6901 23.88 31.1381 24.464C30.5941 25.04 29.9581 25.492 29.2301 25.82C28.5101 26.148 27.7341 26.312 26.9021 26.312ZM26.9021 23.384C27.4861 23.384 28.0101 23.228 28.4741 22.916C28.9381 22.604 29.3021 22.192 29.5661 21.68C29.8381 21.168 29.9741 20.608 29.9741 20C29.9741 19.376 29.8341 18.808 29.5541 18.296C29.2821 17.776 28.9101 17.364 28.4381 17.06C27.9741 16.748 27.4621 16.592 26.9021 16.592C26.3261 16.592 25.8061 16.748 25.3421 17.06C24.8781 17.372 24.5101 17.788 24.2381 18.308C23.9661 18.828 23.8301 19.392 23.8301 20C23.8301 20.632 23.9701 21.204 24.2501 21.716C24.5301 22.228 24.9021 22.636 25.3661 22.94C25.8381 23.236 26.3501 23.384 26.9021 23.384ZM41.2026 16.928H38.8746V26H35.9466V16.928H34.1706V14H35.9466V10.232H38.8746V14H41.2026V16.928ZM54.7538 9.2H58.1258L64.2338 26H61.1258L60.0458 23.024H52.8458L51.7658 26H48.6578L54.7538 9.2ZM53.9138 20.096H58.9658L56.4338 13.172L53.9138 20.096ZM65.9659 14H68.8939V26H65.9659V14ZM67.4539 12.452C67.0219 12.452 66.6579 12.312 66.3619 12.032C66.0659 11.744 65.9179 11.384 65.9179 10.952C65.9179 10.528 66.0659 10.172 66.3619 9.884C66.6579 9.596 67.0179 9.452 67.4419 9.452C67.8659 9.452 68.2219 9.596 68.5099 9.884C68.8059 10.172 68.9539 10.528 68.9539 10.952C68.9539 11.384 68.8099 11.744 68.5219 12.032C68.2339 12.312 67.8779 12.452 67.4539 12.452ZM71.6966 26L71.6846 14H74.6126L74.6246 15.068C75.0326 14.636 75.5206 14.296 76.0886 14.048C76.6566 13.792 77.2686 13.664 77.9246 13.664C78.3646 13.664 78.8046 13.728 79.2446 13.856L78.0926 16.808C77.7886 16.688 77.4846 16.628 77.1806 16.628C76.7086 16.628 76.2766 16.744 75.8846 16.976C75.5006 17.2 75.1926 17.508 74.9606 17.9C74.7366 18.284 74.6246 18.712 74.6246 19.184V26H71.6966ZM86.6846 26V9.2H92.8046C93.6926 9.2 94.4926 9.384 95.2046 9.752C95.9246 10.112 96.4926 10.632 96.9086 11.312C97.3326 11.984 97.5446 12.78 97.5446 13.7C97.5446 14.108 97.4846 14.52 97.3646 14.936C97.2446 15.352 97.0606 15.728 96.8126 16.064C96.5646 16.392 96.2446 16.636 95.8526 16.796C96.3726 16.924 96.7966 17.156 97.1246 17.492C97.4526 17.828 97.7086 18.224 97.8926 18.68C98.0766 19.128 98.2006 19.588 98.2646 20.06C98.3366 20.524 98.3726 20.956 98.3726 21.356C98.3726 22.244 98.1526 23.036 97.7126 23.732C97.2726 24.428 96.6806 24.98 95.9366 25.388C95.2006 25.796 94.3846 26 93.4886 26H86.6846ZM89.6126 23.492H93.1886C93.6686 23.492 94.1006 23.376 94.4846 23.144C94.8686 22.912 95.1766 22.592 95.4086 22.184C95.6406 21.776 95.7566 21.312 95.7566 20.792C95.7566 20.344 95.6406 19.92 95.4086 19.52C95.1766 19.12 94.8686 18.796 94.4846 18.548C94.1006 18.3 93.6686 18.176 93.1886 18.176H89.6126V23.492ZM89.6126 15.704H92.4686C93.0606 15.704 93.5646 15.52 93.9806 15.152C94.4046 14.784 94.6166 14.296 94.6166 13.688C94.6166 13.04 94.4046 12.552 93.9806 12.224C93.5646 11.888 93.0606 11.72 92.4686 11.72H89.6126V15.704ZM109.186 14H112.114V26H109.186L109.054 24.512C108.726 25.048 108.29 25.484 107.746 25.82C107.21 26.148 106.574 26.312 105.838 26.312C104.95 26.312 104.118 26.144 103.342 25.808C102.566 25.472 101.882 25.008 101.29 24.416C100.706 23.824 100.246 23.14 99.9098 22.364C99.5818 21.588 99.4178 20.756 99.4178 19.868C99.4178 19.012 99.5738 18.208 99.8858 17.456C100.206 16.704 100.65 16.044 101.218 15.476C101.786 14.908 102.442 14.464 103.186 14.144C103.93 13.824 104.73 13.664 105.586 13.664C106.378 13.664 107.086 13.84 107.71 14.192C108.342 14.544 108.878 14.992 109.318 15.536L109.186 14ZM105.766 23.492C106.39 23.492 106.942 23.336 107.422 23.024C107.902 22.712 108.278 22.292 108.55 21.764C108.822 21.228 108.958 20.64 108.958 20C108.958 19.352 108.822 18.764 108.55 18.236C108.278 17.7 107.898 17.276 107.41 16.964C106.93 16.652 106.382 16.496 105.766 16.496C105.15 16.496 104.586 16.656 104.074 16.976C103.57 17.288 103.166 17.708 102.862 18.236C102.566 18.764 102.418 19.352 102.418 20C102.418 20.648 102.57 21.236 102.874 21.764C103.178 22.292 103.582 22.712 104.086 23.024C104.598 23.336 105.158 23.492 105.766 23.492ZM114.575 26V8H117.503V26H114.575ZM120.388 26V8H123.316V26H120.388ZM131.293 26.312C130.189 26.312 129.181 26.028 128.269 25.46C127.365 24.892 126.641 24.132 126.097 23.18C125.561 22.22 125.293 21.16 125.293 20C125.293 19.12 125.449 18.3 125.761 17.54C126.073 16.772 126.501 16.1 127.045 15.524C127.597 14.94 128.237 14.484 128.965 14.156C129.693 13.828 130.469 13.664 131.293 13.664C132.397 13.664 133.401 13.948 134.305 14.516C135.217 15.084 135.941 15.848 136.477 16.808C137.021 17.768 137.293 18.832 137.293 20C137.293 20.872 137.137 21.688 136.825 22.448C136.513 23.208 136.081 23.88 135.529 24.464C134.985 25.04 134.349 25.492 133.621 25.82C132.901 26.148 132.125 26.312 131.293 26.312ZM131.293 23.384C131.877 23.384 132.401 23.228 132.865 22.916C133.329 22.604 133.693 22.192 133.957 21.68C134.229 21.168 134.365 20.608 134.365 20C134.365 19.376 134.225 18.808 133.945 18.296C133.673 17.776 133.301 17.364 132.829 17.06C132.365 16.748 131.853 16.592 131.293 16.592C130.717 16.592 130.197 16.748 129.733 17.06C129.269 17.372 128.901 17.788 128.629 18.308C128.357 18.828 128.221 19.392 128.221 20C128.221 20.632 128.361 21.204 128.641 21.716C128.921 22.228 129.293 22.636 129.757 22.94C130.229 23.236 130.741 23.384 131.293 23.384ZM144.488 26.312C143.384 26.312 142.376 26.028 141.464 25.46C140.56 24.892 139.836 24.132 139.292 23.18C138.756 22.22 138.488 21.16 138.488 20C138.488 19.12 138.644 18.3 138.956 17.54C139.268 16.772 139.696 16.1 140.24 15.524C140.792 14.94 141.432 14.484 142.16 14.156C142.888 13.828 143.664 13.664 144.488 13.664C145.592 13.664 146.596 13.948 147.5 14.516C148.412 15.084 149.136 15.848 149.672 16.808C150.216 17.768 150.488 18.832 150.488 20C150.488 20.872 150.332 21.688 150.02 22.448C149.708 23.208 149.276 23.88 148.724 24.464C148.18 25.04 147.544 25.492 146.816 25.82C146.096 26.148 145.32 26.312 144.488 26.312ZM144.488 23.384C145.072 23.384 145.596 23.228 146.06 22.916C146.524 22.604 146.888 22.192 147.152 21.68C147.424 21.168 147.56 20.608 147.56 20C147.56 19.376 147.42 18.808 147.14 18.296C146.868 17.776 146.496 17.364 146.024 17.06C145.56 16.748 145.048 16.592 144.488 16.592C143.912 16.592 143.392 16.748 142.928 17.06C142.464 17.372 142.096 17.788 141.824 18.308C141.552 18.828 141.416 19.392 141.416 20C141.416 20.632 141.556 21.204 141.836 21.716C142.116 22.228 142.488 22.636 142.952 22.94C143.424 23.236 143.936 23.384 144.488 23.384ZM163.349 18.416V26H160.421V19.184C160.421 18.712 160.305 18.284 160.073 17.9C159.841 17.508 159.529 17.2 159.137 16.976C158.753 16.744 158.325 16.628 157.853 16.628C157.381 16.628 156.949 16.744 156.557 16.976C156.173 17.2 155.865 17.508 155.633 17.9C155.409 18.284 155.297 18.712 155.297 19.184V26H152.369L152.357 14H155.285L155.297 15.068C155.705 14.636 156.193 14.296 156.761 14.048C157.329 13.792 157.941 13.664 158.597 13.664C159.469 13.664 160.265 13.88 160.985 14.312C161.705 14.736 162.277 15.308 162.701 16.028C163.133 16.74 163.349 17.536 163.349 18.416Z" fill="#262626"/>
<g opacity="0.7">
<path fill-rule="evenodd" clip-rule="evenodd" d="M8.1665 58.3178C8.1665 53.7179 12.0104 50 16.6599 50C21.3226 50 25.1665 53.7179 25.1665 58.3178C25.1665 60.6357 24.3235 62.7876 22.936 64.6116C21.4053 66.6235 19.5187 68.3765 17.395 69.7524C16.909 70.0704 16.4704 70.0944 15.937 69.7524C13.8012 68.3765 11.9146 66.6235 10.397 64.6116C9.00849 62.7876 8.1665 60.6357 8.1665 58.3178ZM13.8607 58.5768C13.8607 60.1177 15.1182 61.3297 16.6599 61.3297C18.2027 61.3297 19.4723 60.1177 19.4723 58.5768C19.4723 57.0478 18.2027 55.7768 16.6599 55.7768C15.1182 55.7768 13.8607 57.0478 13.8607 58.5768Z" fill="#25A59E"/>
<path d="M43.5785 66.234C42.7265 66.234 41.9255 66.066 41.1755 65.73C40.4255 65.388 39.7655 64.92 39.1955 64.326C38.6315 63.726 38.1875 63.03 37.8635 62.238C37.5455 61.446 37.3865 60.6 37.3865 59.7C37.3865 58.8 37.5455 57.954 37.8635 57.162C38.1875 56.37 38.6315 55.677 39.1955 55.083C39.7655 54.483 40.4255 54.015 41.1755 53.679C41.9255 53.337 42.7265 53.166 43.5785 53.166C44.5985 53.166 45.5375 53.403 46.3955 53.877C47.2535 54.351 47.9645 54.981 48.5285 55.767L46.8635 56.658C46.4735 56.166 45.9905 55.773 45.4145 55.479C44.8385 55.185 44.2265 55.038 43.5785 55.038C42.9785 55.038 42.4175 55.161 41.8955 55.407C41.3735 55.653 40.9145 55.989 40.5185 56.415C40.1225 56.841 39.8135 57.336 39.5915 57.9C39.3695 58.464 39.2585 59.064 39.2585 59.7C39.2585 60.342 39.3695 60.945 39.5915 61.509C39.8135 62.067 40.1225 62.562 40.5185 62.994C40.9205 63.42 41.3825 63.756 41.9045 64.002C42.4265 64.242 42.9845 64.362 43.5785 64.362C44.2385 64.362 44.8535 64.215 45.4235 63.921C45.9995 63.621 46.4795 63.225 46.8635 62.733L48.5285 63.642C47.9645 64.428 47.2535 65.058 46.3955 65.532C45.5375 66 44.5985 66.234 43.5785 66.234ZM56.8071 57H58.6791V66H56.7981L56.7261 64.695C56.4621 65.157 56.1051 65.529 55.6551 65.811C55.2051 66.093 54.6741 66.234 54.0621 66.234C53.4021 66.234 52.7811 66.111 52.1991 65.865C51.6171 65.613 51.1041 65.265 50.6601 64.821C50.2221 64.377 49.8801 63.867 49.6341 63.291C49.3881 62.709 49.2651 62.085 49.2651 61.419C49.2651 60.777 49.3851 60.174 49.6251 59.61C49.8651 59.04 50.1981 58.542 50.6241 58.116C51.0501 57.69 51.5421 57.357 52.1001 57.117C52.6641 56.871 53.2671 56.748 53.9091 56.748C54.5631 56.748 55.1391 56.898 55.6371 57.198C56.1411 57.492 56.5581 57.87 56.8881 58.332L56.8071 57ZM54.0171 64.425C54.5451 64.425 55.0071 64.296 55.4031 64.038C55.7991 63.774 56.1051 63.42 56.3211 62.976C56.5431 62.532 56.6541 62.04 56.6541 61.5C56.6541 60.954 56.5431 60.459 56.3211 60.015C56.0991 59.571 55.7901 59.22 55.3941 58.962C55.0041 58.698 54.5451 58.566 54.0171 58.566C53.4951 58.566 53.0181 58.698 52.5861 58.962C52.1541 59.226 51.8121 59.58 51.5601 60.024C51.3081 60.468 51.1821 60.96 51.1821 61.5C51.1821 62.046 51.3111 62.541 51.5691 62.985C51.8331 63.423 52.1781 63.774 52.6041 64.038C53.0361 64.296 53.5071 64.425 54.0171 64.425ZM62.347 70.5H60.475V57H62.347V58.323C62.647 57.861 63.031 57.486 63.499 57.198C63.967 56.91 64.519 56.766 65.155 56.766C65.809 56.766 66.421 56.889 66.991 57.135C67.567 57.381 68.071 57.723 68.503 58.161C68.935 58.593 69.274 59.094 69.52 59.664C69.766 60.234 69.889 60.846 69.889 61.5C69.889 62.154 69.766 62.769 69.52 63.345C69.274 63.921 68.935 64.428 68.503 64.866C68.071 65.298 67.567 65.637 66.991 65.883C66.421 66.129 65.809 66.252 65.155 66.252C64.519 66.252 63.967 66.108 63.499 65.82C63.031 65.526 62.647 65.151 62.347 64.695V70.5ZM65.137 58.575C64.615 58.575 64.156 58.707 63.76 58.971C63.364 59.235 63.055 59.589 62.833 60.033C62.611 60.471 62.5 60.96 62.5 61.5C62.5 62.04 62.611 62.532 62.833 62.976C63.055 63.42 63.364 63.774 63.76 64.038C64.156 64.302 64.615 64.434 65.137 64.434C65.653 64.434 66.127 64.305 66.559 64.047C66.991 63.783 67.336 63.429 67.594 62.985C67.852 62.541 67.981 62.046 67.981 61.5C67.981 60.966 67.852 60.477 67.594 60.033C67.342 59.589 67 59.235 66.568 58.971C66.136 58.707 65.659 58.575 65.137 58.575ZM73.2279 70.5H71.3559V57H73.2279V58.323C73.5279 57.861 73.9119 57.486 74.3799 57.198C74.8479 56.91 75.3999 56.766 76.0359 56.766C76.6899 56.766 77.3019 56.889 77.8719 57.135C78.4479 57.381 78.9519 57.723 79.3839 58.161C79.8159 58.593 80.1549 59.094 80.4009 59.664C80.6469 60.234 80.7699 60.846 80.7699 61.5C80.7699 62.154 80.6469 62.769 80.4009 63.345C80.1549 63.921 79.8159 64.428 79.3839 64.866C78.9519 65.298 78.4479 65.637 77.8719 65.883C77.3019 66.129 76.6899 66.252 76.0359 66.252C75.3999 66.252 74.8479 66.108 74.3799 65.82C73.9119 65.526 73.5279 65.151 73.2279 64.695V70.5ZM76.0179 58.575C75.4959 58.575 75.0369 58.707 74.6409 58.971C74.2449 59.235 73.9359 59.589 73.7139 60.033C73.4919 60.471 73.3809 60.96 73.3809 61.5C73.3809 62.04 73.4919 62.532 73.7139 62.976C73.9359 63.42 74.2449 63.774 74.6409 64.038C75.0369 64.302 75.4959 64.434 76.0179 64.434C76.5339 64.434 77.0079 64.305 77.4399 64.047C77.8719 63.783 78.2169 63.429 78.4749 62.985C78.7329 62.541 78.8619 62.046 78.8619 61.5C78.8619 60.966 78.7329 60.477 78.4749 60.033C78.2229 59.589 77.8809 59.235 77.4489 58.971C77.0169 58.707 76.5399 58.575 76.0179 58.575ZM89.2212 57H91.0932V66H89.2122L89.1402 64.695C88.8762 65.157 88.5192 65.529 88.0692 65.811C87.6192 66.093 87.0882 66.234 86.4762 66.234C85.8162 66.234 85.1952 66.111 84.6132 65.865C84.0312 65.613 83.5182 65.265 83.0742 64.821C82.6362 64.377 82.2942 63.867 82.0482 63.291C81.8022 62.709 81.6792 62.085 81.6792 61.419C81.6792 60.777 81.7992 60.174 82.0392 59.61C82.2792 59.04 82.6122 58.542 83.0382 58.116C83.4642 57.69 83.9562 57.357 84.5142 57.117C85.0782 56.871 85.6812 56.748 86.3232 56.748C86.9772 56.748 87.5532 56.898 88.0512 57.198C88.5552 57.492 88.9722 57.87 89.3022 58.332L89.2212 57ZM86.4312 64.425C86.9592 64.425 87.4212 64.296 87.8172 64.038C88.2132 63.774 88.5192 63.42 88.7352 62.976C88.9572 62.532 89.0682 62.04 89.0682 61.5C89.0682 60.954 88.9572 60.459 88.7352 60.015C88.5132 59.571 88.2042 59.22 87.8082 58.962C87.4182 58.698 86.9592 58.566 86.4312 58.566C85.9092 58.566 85.4322 58.698 85.0002 58.962C84.5682 59.226 84.2262 59.58 83.9742 60.024C83.7222 60.468 83.5962 60.96 83.5962 61.5C83.5962 62.046 83.7252 62.541 83.9832 62.985C84.2472 63.423 84.5922 63.774 85.0182 64.038C85.4502 64.296 85.9212 64.425 86.4312 64.425ZM99.7243 52.5H101.596V66H99.7243V64.677C99.4303 65.145 99.0463 65.523 98.5723 65.811C98.0983 66.093 97.5433 66.234 96.9073 66.234C96.2533 66.234 95.6413 66.111 95.0713 65.865C94.5013 65.619 93.9973 65.28 93.5593 64.848C93.1273 64.41 92.7883 63.906 92.5423 63.336C92.2963 62.766 92.1733 62.154 92.1733 61.5C92.1733 60.846 92.2963 60.234 92.5423 59.664C92.7883 59.088 93.1273 58.584 93.5593 58.152C93.9973 57.714 94.5013 57.372 95.0713 57.126C95.6413 56.88 96.2533 56.757 96.9073 56.757C97.5433 56.757 98.0983 56.901 98.5723 57.189C99.0463 57.471 99.4303 57.843 99.7243 58.305V52.5ZM96.9253 64.425C97.4533 64.425 97.9153 64.296 98.3113 64.038C98.7073 63.774 99.0133 63.42 99.2293 62.976C99.4513 62.532 99.5623 62.04 99.5623 61.5C99.5623 60.954 99.4513 60.459 99.2293 60.015C99.0073 59.571 98.6983 59.22 98.3023 58.962C97.9123 58.698 97.4533 58.566 96.9253 58.566C96.4033 58.566 95.9263 58.698 95.4943 58.962C95.0683 59.226 94.7263 59.58 94.4683 60.024C94.2163 60.468 94.0903 60.96 94.0903 61.5C94.0903 62.046 94.2193 62.541 94.4773 62.985C94.7413 63.423 95.0863 63.774 95.5123 64.038C95.9443 64.296 96.4153 64.425 96.9253 64.425ZM107.589 66.234C106.761 66.234 106.005 66.021 105.321 65.595C104.643 65.169 104.1 64.599 103.692 63.885C103.29 63.165 103.089 62.37 103.089 61.5C103.089 60.84 103.206 60.225 103.44 59.655C103.674 59.079 103.995 58.575 104.403 58.143C104.817 57.705 105.297 57.363 105.843 57.117C106.389 56.871 106.971 56.748 107.589 56.748C108.417 56.748 109.17 56.961 109.848 57.387C110.532 57.813 111.075 58.386 111.477 59.106C111.885 59.826 112.089 60.624 112.089 61.5C112.089 62.154 111.972 62.766 111.738 63.336C111.504 63.906 111.18 64.41 110.766 64.848C110.358 65.28 109.881 65.619 109.335 65.865C108.795 66.111 108.213 66.234 107.589 66.234ZM107.589 64.362C108.087 64.362 108.534 64.23 108.93 63.966C109.326 63.702 109.638 63.354 109.866 62.922C110.1 62.484 110.217 62.01 110.217 61.5C110.217 60.978 110.097 60.498 109.857 60.06C109.623 59.622 109.308 59.274 108.912 59.016C108.516 58.752 108.075 58.62 107.589 58.62C107.097 58.62 106.65 58.752 106.248 59.016C105.852 59.28 105.537 59.631 105.303 60.069C105.075 60.507 104.961 60.984 104.961 61.5C104.961 62.034 105.081 62.517 105.321 62.949C105.561 63.381 105.879 63.726 106.275 63.984C106.677 64.236 107.115 64.362 107.589 64.362ZM119.403 63.444L121.077 64.353C120.669 64.923 120.15 65.379 119.52 65.721C118.896 66.063 118.218 66.234 117.486 66.234C116.658 66.234 115.902 66.021 115.218 65.595C114.54 65.169 113.997 64.599 113.589 63.885C113.187 63.165 112.986 62.37 112.986 61.5C112.986 60.84 113.103 60.225 113.337 59.655C113.571 59.079 113.892 58.575 114.3 58.143C114.714 57.705 115.194 57.363 115.74 57.117C116.286 56.871 116.868 56.748 117.486 56.748C118.218 56.748 118.896 56.919 119.52 57.261C120.15 57.603 120.669 58.062 121.077 58.638L119.403 59.547C119.151 59.247 118.857 59.019 118.521 58.863C118.185 58.701 117.84 58.62 117.486 58.62C116.994 58.62 116.547 58.755 116.145 59.025C115.749 59.289 115.434 59.64 115.2 60.078C114.972 60.51 114.858 60.984 114.858 61.5C114.858 62.01 114.975 62.484 115.209 62.922C115.443 63.354 115.758 63.702 116.154 63.966C116.556 64.23 117 64.362 117.486 64.362C117.858 64.362 118.212 64.278 118.548 64.11C118.884 63.942 119.169 63.72 119.403 63.444ZM122.42 57H124.292V66H122.42V57ZM123.374 55.695C123.086 55.695 122.846 55.602 122.654 55.416C122.462 55.23 122.366 54.996 122.366 54.714C122.366 54.438 122.462 54.207 122.654 54.021C122.846 53.829 123.083 53.733 123.365 53.733C123.641 53.733 123.875 53.829 124.067 54.021C124.259 54.207 124.355 54.438 124.355 54.714C124.355 54.996 124.259 55.23 124.067 55.416C123.881 55.602 123.65 55.695 123.374 55.695ZM133.29 57H135.162V66H133.281L133.209 64.695C132.945 65.157 132.588 65.529 132.138 65.811C131.688 66.093 131.157 66.234 130.545 66.234C129.885 66.234 129.264 66.111 128.682 65.865C128.1 65.613 127.587 65.265 127.143 64.821C126.705 64.377 126.363 63.867 126.117 63.291C125.871 62.709 125.748 62.085 125.748 61.419C125.748 60.777 125.868 60.174 126.108 59.61C126.348 59.04 126.681 58.542 127.107 58.116C127.533 57.69 128.025 57.357 128.583 57.117C129.147 56.871 129.75 56.748 130.392 56.748C131.046 56.748 131.622 56.898 132.12 57.198C132.624 57.492 133.041 57.87 133.371 58.332L133.29 57ZM130.5 64.425C131.028 64.425 131.49 64.296 131.886 64.038C132.282 63.774 132.588 63.42 132.804 62.976C133.026 62.532 133.137 62.04 133.137 61.5C133.137 60.954 133.026 60.459 132.804 60.015C132.582 59.571 132.273 59.22 131.877 58.962C131.487 58.698 131.028 58.566 130.5 58.566C129.978 58.566 129.501 58.698 129.069 58.962C128.637 59.226 128.295 59.58 128.043 60.024C127.791 60.468 127.665 60.96 127.665 61.5C127.665 62.046 127.794 62.541 128.052 62.985C128.316 63.423 128.661 63.774 129.087 64.038C129.519 64.296 129.99 64.425 130.5 64.425ZM137.578 66.234C137.302 66.234 137.068 66.138 136.876 65.946C136.69 65.754 136.597 65.52 136.597 65.244C136.597 64.974 136.69 64.743 136.876 64.551C137.068 64.359 137.302 64.263 137.578 64.263C137.854 64.263 138.088 64.359 138.28 64.551C138.472 64.743 138.568 64.974 138.568 65.244C138.568 65.52 138.472 65.754 138.28 65.946C138.088 66.138 137.854 66.234 137.578 66.234ZM154.592 53.4V55.272H150.578V66H148.706V55.272H144.701V53.4H154.592ZM154.879 62.625V57H156.751V62.166C156.751 62.568 156.85 62.934 157.048 63.264C157.246 63.594 157.51 63.858 157.84 64.056C158.17 64.248 158.533 64.344 158.929 64.344C159.331 64.344 159.694 64.248 160.018 64.056C160.348 63.858 160.609 63.594 160.801 63.264C160.999 62.934 161.098 62.568 161.098 62.166V57H162.97L162.979 66H161.107L161.098 65.028C160.792 65.4 160.411 65.694 159.955 65.91C159.499 66.126 159.01 66.234 158.488 66.234C157.822 66.234 157.216 66.072 156.67 65.748C156.124 65.424 155.689 64.989 155.365 64.443C155.041 63.897 154.879 63.291 154.879 62.625ZM164.784 66V57H166.656V57.954C166.968 57.582 167.352 57.288 167.808 57.072C168.264 56.856 168.756 56.748 169.284 56.748C169.62 56.748 169.953 56.793 170.283 56.883L169.536 58.773C169.302 58.683 169.068 58.638 168.834 58.638C168.438 58.638 168.075 58.737 167.745 58.935C167.415 59.127 167.151 59.388 166.953 59.718C166.755 60.048 166.656 60.414 166.656 60.816V66H164.784ZM179 66H176.84L174.626 62.184L173.177 63.912V66H171.305V52.5H173.177V61.005L176.525 57H178.973L175.904 60.663L179 66ZM183.878 66.234C183.05 66.234 182.294 66.021 181.61 65.595C180.932 65.169 180.389 64.599 179.981 63.885C179.579 63.165 179.378 62.37 179.378 61.5C179.378 60.84 179.495 60.225 179.729 59.655C179.963 59.079 180.284 58.575 180.692 58.143C181.106 57.705 181.586 57.363 182.132 57.117C182.678 56.871 183.26 56.748 183.878 56.748C184.568 56.748 185.201 56.892 185.777 57.18C186.353 57.462 186.845 57.855 187.253 58.359C187.661 58.857 187.961 59.433 188.153 60.087C188.345 60.735 188.402 61.425 188.324 62.157H181.385C181.463 62.571 181.613 62.946 181.835 63.282C182.063 63.612 182.351 63.873 182.699 64.065C183.053 64.257 183.446 64.356 183.878 64.362C184.334 64.362 184.748 64.248 185.12 64.02C185.498 63.792 185.807 63.477 186.047 63.075L187.946 63.516C187.586 64.314 187.043 64.968 186.317 65.478C185.591 65.982 184.778 66.234 183.878 66.234ZM181.322 60.726H186.434C186.374 60.294 186.221 59.904 185.975 59.556C185.735 59.202 185.432 58.923 185.066 58.719C184.706 58.509 184.31 58.404 183.878 58.404C183.452 58.404 183.056 58.506 182.69 58.71C182.33 58.914 182.03 59.193 181.79 59.547C181.556 59.895 181.4 60.288 181.322 60.726ZM195.435 57H197.433L192.501 70.5H190.512L192.141 66L188.91 57H190.953L193.077 63.435L195.435 57Z" fill="#262626"/>
</g>
</svg>
